<svg width="85" height="34" viewBox="0 0 85 34" fill="none" xmlns="http://www.w3.org/2000/svg">
<path d="M85.0018 31.6621H73.0781V34H85.0018V31.6621Z" fill="white"/>
<path d="M85.0018 27.1543H73.0781V29.4921H85.0018V27.1543Z" fill="white"/>
<path d="M59.005 31.6621H47.2227V34H59.005V31.6621Z" fill="white"/>
<path d="M59.005 27.1543H47.2227V29.4921H59.005V27.1543Z" fill="white"/>
<path d="M65.2109 31.6621H67.0287L66.1785 33.9765H66.0377L65.2109 31.6621Z" fill="white"/>
<path d="M63.5586 27.1543H68.5885L67.7848 29.4917H64.4318L63.5586 27.1543Z" fill="white"/>
<path d="M59.0012 22.6113H51.8477V24.9492H59.0012V22.6113Z" fill="white"/>
<path d="M61.9297 22.6113H70.2172L69.3673 24.9492H62.7796L61.9297 22.6113Z" fill="white"/>
<path d="M80.2277 22.6113H73.0742V24.9492H80.2277V22.6113Z" fill="white"/>
<path d="M59.0012 18.1016H51.8477V20.4394H59.0012V18.1016Z" fill="white"/>
<path d="M60.3008 18.1016H71.8459L71.0191 20.4394H61.1741L60.3008 18.1016Z" fill="white"/>
<path d="M80.2277 18.1016H73.0742V20.4394H80.2277V18.1016Z" fill="white"/>
<path d="M73.0749 14.6194L72.5786 15.9179H59.4515L59.0016 14.6194V15.9179H51.8477V13.5801H65.3532L66.0622 15.5394L66.7693 13.5801H80.2284V15.9179H73.0749V14.6194Z" fill="white"/>
<path d="M51.8477 9.05664H63.7013L64.5517 11.3945H51.8477V9.05664Z" fill="white"/>
<path d="M80.2501 11.3945H67.4766L68.3264 9.05664H80.2501V11.3945Z" fill="white"/>
<path d="M84.8828 6.86175H69.1094L69.8893 4.54883H84.8828V6.86175Z" fill="white"/>
<path d="M84.8815 2.33784H70.7383L71.5882 0H84.8815V2.33784Z" fill="white"/>
<path d="M62.8981 6.86175H47.0781V4.54883H62.1196L62.8981 6.86175Z" fill="white"/>
<path d="M61.3392 2.33784H47.0781V0H60.4893L61.3392 2.33784Z" fill="white"/>
<path d="M18.8867 31.6621H42.4513C42.4513 31.6621 40.0426 33.9769 36.8548 33.9769H18.8867V31.6621Z" fill="white"/>
<path d="M18.8867 27.1543H45.2137C45.2137 27.1543 44.9066 28.9478 44.3638 29.4921H18.8867V27.1543Z" fill="white"/>
<path d="M30.7843 22.6113H23.6289V24.9492H30.7843V22.6113Z" fill="white"/>
<path d="M44.9543 22.6113C44.9543 22.6113 45.4027 23.8634 45.4027 24.9492H37.7773V22.6113H44.9543Z" fill="white"/>
<path d="M43.9593 20.4394H23.6289V18.1016H41.929C41.929 18.1016 43.463 19.3071 43.9593 20.4394Z" fill="white"/>
<path d="M43.9593 13.5801C43.463 14.7123 41.929 15.9179 41.929 15.9179H23.6289V13.5801H43.9593Z" fill="white"/>
<path d="M30.7843 9.05664H23.6289V11.3945H30.7843V9.05664Z" fill="white"/>
<path d="M44.9309 11.3945H37.7773V9.05664H45.3793C45.3793 10.1673 44.9309 11.3945 44.9309 11.3945Z" fill="white"/>
<path d="M42.4743 2.33784H18.8867V0H36.8783C40.066 0 42.4748 2.33784 42.4748 2.33784H42.4743Z" fill="white"/>
<path d="M45.1892 6.86175H18.8867V4.54883H44.3389C44.8817 5.06872 45.1888 6.86175 45.1888 6.86175H45.1892Z" fill="white"/>
<path d="M16.673 31.6621H0.121094V34H16.673V31.6621Z" fill="white"/>
<path d="M16.673 27.1543H0.121094V29.4921H16.673V27.1543Z" fill="white"/>
<path d="M11.8996 22.6113H4.74609V24.9492H11.8996V22.6113Z" fill="white"/>
<path d="M11.8996 18.1016H4.74609V20.4394H11.8996V18.1016Z" fill="white"/>
<path d="M11.8996 9.05664H4.74609V11.3945H11.8996V9.05664Z" fill="white"/>
<path d="M11.8996 13.5801H4.74609V15.9179H11.8996V13.5801Z" fill="white"/>
<path d="M16.552 4.54883H0V6.88667H16.552V4.54883Z" fill="white"/>
<path d="M16.552 0H0V2.33784H16.552V0Z" fill="white"/>
</svg>
