<svg width="122" height="34" viewBox="0 0 122 34" fill="none" xmlns="http://www.w3.org/2000/svg">
<g clip-path="url(#clip0_187_572)">
<path d="M49.808 0.296155L49.2603 2.47046C49.2603 2.47046 47.5787 2.2588 45.2149 4.23588L34.8228 12.5579L31.1762 15.4874C31.1762 15.4874 32.9058 18.1861 34.8228 21.13C36.9368 24.3771 39.2766 27.9175 39.7378 28.413C40.617 29.3607 42.0632 30.9625 44.2684 30.9481L43.6967 33.2715C39.9156 33.2715 37.0953 33.3822 34.8228 33.2715C28.111 32.9685 26.194 30.8086 18.4924 18.441C18.4924 18.441 16.3064 26.3638 15.7779 28.3408C15.2446 30.3372 18.0216 30.8904 18.0216 30.8904L17.4354 33.2475H0L0.0384358 33.0887L0.576537 30.924C1.46056 30.8615 3.91084 31.1549 5.43386 25.3392C5.80861 24.2328 5.16481 26.2387 10.7284 6.09751C11.5163 3.10544 9.24381 2.66288 8.45107 2.46084L8.98437 0.310586L25.6559 0.300966L25.1178 2.46565C25.1178 2.46565 22.8741 2.71098 22.2543 4.7987L19.2755 15.6173C19.2755 15.6173 33.1317 5.01998 33.3046 4.86605C34.6595 3.61053 33.0019 2.55224 31.8152 2.46565L32.3533 0.315397H34.8276L49.8128 0.291345L49.808 0.296155ZM104.944 -0.0020903C103.094 -0.0261423 101.317 0.0652555 99.6208 0.262482C85.659 1.89802 77.2079 10.7107 77.2319 19.533C77.2559 26.9266 83.2183 34.0508 97.0648 33.9931C97.944 33.9931 98.7992 33.9642 99.6256 33.9113C102.974 33.7381 105.934 33.2715 108.629 32.7279L110.229 25.8442C107.553 26.739 104.161 27.4894 101.451 27.4942C100.827 27.4942 100.217 27.4654 99.6256 27.4028C93.2789 26.763 89.1374 22.6549 89.123 17.4164C89.1086 11.9855 93.0482 7.71862 99.6256 6.60741C100.731 6.42462 101.898 6.3236 103.142 6.3236C107.385 6.3236 109.537 7.73305 110.95 9.58506H112.098L114.361 1.45546C112.031 0.70023 108.576 0.0508242 104.944 -0.0020903ZM68.2187 0.320207H51.7778L51.2397 2.47046C51.2397 2.47046 54.5212 2.82643 53.5122 6.10232L46.0509 33.2523L60.9688 33.2763L61.5261 30.9433C61.5261 30.9433 58.7395 30.2698 59.465 27.6914C59.5178 27.4605 61.6558 19.634 61.6558 19.634H68.2187L68.4926 19.6292C71.8989 19.6436 73.0232 21.409 73.0232 21.409L75.0074 13.3516H63.4815L65.1967 7.0163H68.2187L75.2044 7.01149C77.0493 7.01149 78.3369 8.23814 78.3369 9.1425H79.4708L81.6761 0.320207H68.2139H68.2187ZM120.953 4.62552C121.395 4.17816 121.625 3.62496 121.625 2.98517C121.625 2.34539 121.395 1.80662 120.957 1.35926C120.506 0.902267 119.958 0.676178 119.324 0.676178C118.69 0.676178 118.147 0.897456 117.695 1.35926C117.248 1.80662 117.023 2.3502 117.023 2.98517C117.023 3.62015 117.244 4.17335 117.69 4.62552C118.137 5.08732 118.68 5.30379 119.319 5.30379C119.958 5.30379 120.501 5.0777 120.948 4.62552M121.217 1.09468C121.741 1.61902 122 2.24918 122 2.98517C122 3.72117 121.741 4.35614 121.217 4.88529C120.693 5.41443 120.064 5.67419 119.319 5.67419C118.574 5.67419 117.95 5.40962 117.426 4.88529C116.907 4.36095 116.648 3.73079 116.648 2.98517C116.648 2.23956 116.907 1.61902 117.431 1.09468C117.955 0.575159 118.584 0.315397 119.319 0.320207C120.064 0.320207 120.688 0.575159 121.217 1.09468ZM119.723 2.86491C119.92 2.78314 120.025 2.6292 120.025 2.40793C120.025 2.18665 119.958 2.05196 119.833 1.97499C119.699 1.89802 119.492 1.86435 119.199 1.86916H118.767V2.93226H119.233C119.454 2.93226 119.617 2.90821 119.727 2.86491M120.487 4.25512C120.487 4.3369 120.501 4.385 120.515 4.40906L120.53 4.44754H120.049C120.049 4.44754 120.045 4.4283 120.04 4.41387C120.04 4.40425 120.035 4.39944 120.035 4.38019L120.021 4.28399V4.04828C120.021 3.71155 119.929 3.48546 119.747 3.37963C119.636 3.31709 119.439 3.27861 119.17 3.27861H118.767V4.44273H118.243V1.50357H119.276C119.641 1.50357 119.905 1.54205 120.078 1.61421C120.381 1.73928 120.539 1.98942 120.539 2.35982C120.539 2.61958 120.443 2.812 120.246 2.93707C120.145 2.99961 120.006 3.04771 119.824 3.07657C120.049 3.11025 120.222 3.20645 120.328 3.36039C120.429 3.52394 120.487 3.67306 120.487 3.81738V4.03384C120.487 4.10119 120.487 4.17335 120.496 4.2455" fill="white"/>
</g>
<defs>
<clipPath id="clip0_187_572">
<rect width="122" height="34" fill="white"/>
</clipPath>
</defs>
</svg>
