<svg width="211" height="36" viewBox="0 0 211 36" fill="none" xmlns="http://www.w3.org/2000/svg">
<path d="M25.0311 14.4207C24.894 14.4207 24.7786 14.4242 24.7137 14.4314C24.638 14.5683 24.5261 14.7518 24.3602 15.0074C26.9428 15.0074 29.2874 15.2198 31.8807 15.6841L31.1485 16.3896C28.8076 15.9757 26.8634 15.8101 24.3855 15.8101C24.0248 15.8101 23.9491 15.8101 23.8625 15.8137C23.7759 15.9432 23.5811 16.1952 23.3864 16.4292C23.6064 16.4148 24.032 16.4076 24.6199 16.4076C26.6579 16.4076 28.5623 16.5588 30.6291 16.89L29.8969 17.5991C28.3242 17.3543 26.4017 17.2139 24.6776 17.2139C24.0644 17.2139 23.3683 17.2355 22.7443 17.2715C22.6036 17.4335 22.2358 17.8294 22.1239 17.9518C22.9499 17.8654 23.8589 17.8258 24.9409 17.8258C26.4811 17.8258 27.9528 17.9266 29.3451 18.1318L28.6128 18.8337C27.6209 18.7113 26.4162 18.6394 25.3522 18.6394C22.6073 18.6394 20.4431 19.2332 18.2067 20.5975C20.3385 22.8796 23.83 24.3229 27.2133 24.3229H27.5307L26.3477 25.4642C21.4674 24.5498 16.3311 22.408 11.992 19.4743C7.81873 16.6632 6.35794 15.8317 3.10087 14.3955L3.07924 13.5604L5.28308 14.5035L6.03333 13.9095L13.2292 17.1995L12.7602 17.5738L9.06675 15.9721L8.70244 16.2564L10.6214 17.3255C12.2409 18.2254 13.4744 18.6285 14.6143 18.6285C17.1067 18.6285 19.343 16.8648 20.7857 13.7656C21.8715 13.6252 23.0293 13.5604 24.4215 13.5604C27.2782 13.5604 30.0519 13.8339 33.1936 14.4207L32.429 15.1586C30.474 14.7518 27.152 14.4207 25.0311 14.4207ZM18.0372 34.9199C8.67597 34.9199 1.08232 27.3419 1.08232 18C1.08232 8.65802 8.67597 1.07993 18.0372 1.07993C27.3984 1.07993 34.9921 8.65802 34.9921 18C34.9921 27.3419 27.3984 34.9199 18.0372 34.9199ZM18.0372 9.12498e-06C8.06274 9.12498e-06 0 8.04596 0 18C0 27.954 8.06274 36 18.0372 36C28.0118 36 36.0744 27.954 36.0744 18C36.0744 8.04596 28.0118 9.12498e-06 18.0372 9.12498e-06ZM65.6896 25.1657H76.0309V30H60.1239V5.99991H65.6896V25.1657ZM88.5367 12.72H93.7244V30H88.846V28.0115C88.1244 29.3486 86.6472 30.5142 83.9329 30.5142C79.5011 30.5142 77.1992 28.5256 77.1992 22.8343V12.72H82.387V22.5941C82.387 24.8914 83.3835 25.9198 85.4791 25.9198C87.3687 25.9198 88.5367 24.8914 88.5367 22.5941V12.72ZM97.71 12.0686C97.71 7.88586 100.356 5.65709 104.513 5.65709C105.853 5.65709 106.711 5.86283 106.711 5.86283V10.0456C106.711 10.0456 105.99 9.97729 105.371 9.97729C103.757 9.97729 102.898 10.5258 102.898 12.0344V12.72H106.711V16.9371H102.898V30H97.71V16.9371H95.099V12.72H97.71V12.0686ZM115.85 12.72H119.801V16.9371H115.85V23.6571C115.85 25.5086 116.812 25.9886 118.324 25.9886C118.942 25.9886 119.801 25.8858 119.801 25.8858V30.0343C119.801 30.0343 118.599 30.3085 117.328 30.3085C113.17 30.3085 110.662 28.4228 110.662 24.2401V16.9371H108.051V12.72H110.662V7.68003H115.85V12.72ZM131.287 12.2057C135.685 12.2057 137.987 14.1942 137.987 19.8857V30H132.798V20.1256C132.798 17.8286 131.802 16.8002 129.638 16.8002C127.679 16.8002 126.512 17.8286 126.512 20.1256V30H121.324V6.03428H126.546V14.3999C127.439 13.1313 128.847 12.2057 131.287 12.2057ZM151.213 23.2799C151.213 25.1657 149.427 26.5715 146.679 26.5715C145.339 26.5715 144.548 25.9544 144.548 24.7885C144.548 23.8972 145.098 23.143 146.851 22.9031L149.84 22.4914C150.355 22.4228 150.904 22.3201 151.213 22.2172V23.2799ZM148.328 12.2058C143.208 12.2058 140.735 14.1602 140.529 17.8287H145.579C145.648 16.8686 146.197 16.1486 148.328 16.1486C150.217 16.1486 151.111 16.7659 151.111 17.6914C151.111 18.5145 150.595 18.8229 149.324 18.96L146.026 19.3028C141.559 19.7827 139.532 21.6343 139.532 24.9944C139.532 28.1143 141.457 30.5142 145.545 30.5142C148.328 30.5142 149.977 29.6228 151.419 27.8398V30H156.161V18.6515C156.161 13.8858 153.378 12.2058 148.328 12.2058ZM168.157 12.2057C172.658 12.2057 174.96 14.1942 174.96 19.8857V30H169.772V20.1256C169.772 17.8286 168.775 16.8002 166.611 16.8002C164.652 16.8002 163.485 17.8286 163.485 20.1256V30H158.297V12.7201H163.175V14.7087C163.897 13.3714 165.374 12.2057 168.157 12.2057ZM185.903 19.1657C190.301 19.7487 192.5 21.12 192.5 24.72C192.5 28.3544 189.923 30.5143 184.46 30.5143C178.517 30.5143 176.421 28.1488 176.318 24.6856H181.437C181.575 25.9544 182.467 26.5715 184.46 26.5715C186.487 26.5715 187.312 26.0914 187.312 25.1315C187.312 24.2401 186.624 23.8288 184.839 23.5887L183.017 23.3485C179.203 22.8343 177.005 21.3601 177.005 17.9315C177.005 14.6401 179.444 12.2057 184.564 12.2057C189.305 12.2057 191.847 14.0914 192.087 17.8286H187.037C186.865 16.8345 186.316 16.2172 184.564 16.2172C182.846 16.2172 182.193 16.8002 182.193 17.5545C182.193 18.3086 182.605 18.7201 184.083 18.9259L185.903 19.1657ZM205.486 23.2803C205.486 25.1658 203.7 26.5715 200.952 26.5715C199.611 26.5715 198.821 25.9544 198.821 24.7885C198.821 23.8972 199.371 23.143 201.123 22.9031L204.112 22.4914C204.628 22.4231 205.177 22.3201 205.486 22.2172V23.2803ZM202.6 12.2058C197.482 12.2058 195.008 14.1602 194.801 17.8287H199.852C199.921 16.8686 200.471 16.1488 202.6 16.1488C204.49 16.1488 205.384 16.7659 205.384 17.6916C205.384 18.5145 204.868 18.8229 203.597 18.96L200.298 19.3028C195.832 19.783 193.805 21.6344 193.805 24.9944C193.805 28.1143 195.729 30.5142 199.817 30.5142C202.6 30.5142 204.249 29.6228 205.693 27.8398V30H210.433V18.6515C210.433 13.886 207.651 12.2058 202.6 12.2058Z" fill="white"/>
</svg>
