<svg width="68" height="68" viewBox="0 0 68 68" fill="none" xmlns="http://www.w3.org/2000/svg">
<g clip-path="url(#clip0_187_565)">
<path d="M34.0012 0C15.2293 0 0 15.23 0 34.0008C0 52.7716 15.2293 68.0016 34.0012 68.0016C52.773 68.0016 68.0024 52.77 68.0024 34.0008C68.0024 15.2316 52.7698 0 34.0012 0ZM34.0012 1.28003C52.0818 1.28003 66.7223 15.9204 66.7223 34.0008C66.7223 52.0812 52.0818 66.7216 34.0012 66.7216C15.9206 66.7216 1.28004 52.0812 1.28004 34.0008C1.28004 15.9204 15.9206 1.28003 34.0012 1.28003Z" fill="black"/>
<path d="M33.9648 1.28125C52.0566 1.28125 66.7227 15.9296 66.7227 33.999C66.7226 52.0684 52.0565 66.7168 33.9648 66.7168C15.8733 66.7167 1.20714 52.0683 1.20703 33.999C1.20703 15.9297 15.8732 1.28133 33.9648 1.28125ZM49.2578 44C40.3304 44.0001 28.3206 47.8105 18.3604 47.8105C9.79577 47.8105 6.19311 46.1802 6.07812 46.1309C8.44236 51.561 12.3396 56.1835 17.292 59.4316C22.2445 62.6798 28.0373 64.4121 33.96 64.417C39.8827 64.4218 45.6789 62.6991 50.6367 59.459C55.5945 56.2189 59.499 51.6022 61.8721 46.1758C61.7779 46.1421 55.8363 44.0029 49.2578 44.0029V44ZM50.0771 27.373C46.5115 27.3731 44.4551 29.0373 44.4551 31.3125C44.4552 36.18 52.2437 34.8927 52.2451 36.6416C52.2451 37.2904 51.3135 37.5283 50.5127 37.5283C49.0544 37.5283 47.6616 37.1334 47.0566 36.0889L43.6016 37.3887C43.6063 37.4117 44.2645 40.5498 50.3965 40.5498C54.3022 40.5498 56.4111 38.8874 56.4111 36.4697C56.4108 31.7964 48.6553 32.9944 48.6553 31.3096C48.6557 30.7499 49.6148 30.4532 50.2051 30.4531C52.4504 30.4531 52.6394 31.7852 52.6416 31.8018L56.1504 30.4463C55.8071 29.411 54.9833 27.3741 50.0752 27.374L50.0771 27.373ZM12.7861 27.6807H5.74609V40.1357H10.0957V37.7969L13.7236 36.4004C16.9944 35.1429 17.7323 33.9068 17.75 31.7207C17.7788 27.8806 13.8899 27.6768 12.7891 27.6768L12.7861 27.6807ZM18.9678 40.1357H29.959V37.0205H23.3184V35.4131H28.4639V32.4082H23.3193V30.7949H29.8975V27.6807H18.9678V40.1357ZM38.7285 27.6807H31.6885V40.1357H36.0381V37.7969L39.666 36.4004C42.9369 35.1429 43.6747 33.9069 43.6924 31.7207C43.722 27.881 39.8338 27.6768 38.7324 27.6768L38.7285 27.6807ZM57.6826 29.0264V40.1357H62.0342V27.4629L57.6826 29.0264ZM11.8076 30.8008C12.6756 30.8008 13.3945 31.1323 13.3945 32.0898C13.3945 33.047 12.5999 33.5245 12.2676 33.6592L10.0947 34.54L10.0957 30.8008H11.8076ZM37.75 30.8008C38.618 30.8008 39.3378 31.1323 39.3379 32.0898C39.3379 33.0475 38.5457 33.5207 38.2129 33.6543L36.041 34.5342L36.0381 30.8008H37.75ZM33.9824 3.58594C21.8846 3.59398 10.877 10.8092 6.03516 21.8828C6.12476 21.9148 12.0253 23.9988 18.71 23.999C27.9101 23.999 39.6472 20.1886 49.6074 20.1885C57.7765 20.1885 61.8079 21.8884 61.9199 21.9404C57.0885 10.8426 46.0988 3.59314 33.9824 3.58594Z" fill="#F8FFFF"/>
</g>
<defs>
<clipPath id="clip0_187_565">
<rect width="68" height="68" fill="white"/>
</clipPath>
</defs>
</svg>
