<svg width="184" height="36" viewBox="0 0 184 36" fill="none" xmlns="http://www.w3.org/2000/svg">
<path opacity="0.994" fill-rule="evenodd" clip-rule="evenodd" d="M22.961 10.8001C22.8559 11.5322 22.8205 12.2845 22.855 13.0568C20.84 13.0568 18.825 13.0568 16.81 13.0568C16.8443 12.3916 16.809 11.7468 16.704 11.1225C16.1924 9.60938 15.1672 9.05416 13.6285 9.45681C12.4689 9.99806 12.027 10.9115 12.3028 12.1971C12.4705 12.7974 12.8064 13.281 13.3103 13.6479C15.7142 15.0807 18.118 16.5136 20.5219 17.9464C21.3921 18.649 22.1521 19.4549 22.802 20.3643C23.3441 21.5166 23.6092 22.7345 23.5974 24.018C23.6453 28.6083 21.4182 31.1695 16.9161 31.7016C14.4959 32.0474 12.1274 31.8325 9.81061 31.0568C7.39442 30.1196 6.03342 28.3465 5.72761 25.7374C5.67461 24.6992 5.65693 23.6604 5.67459 22.621C7.90168 22.621 10.1288 22.621 12.3559 22.621C12.314 23.7027 12.367 24.7773 12.5149 25.8449C13.1567 26.9943 14.1288 27.442 15.4314 27.1882C16.4343 26.966 17.0176 26.3391 17.1812 25.3076C17.3468 24.0844 16.9403 23.0993 15.9616 22.3523C15.3253 21.9225 14.689 21.4926 14.0527 21.0628C11.9136 19.9977 9.89864 18.7441 8.00773 17.3016C6.48579 15.9358 5.74342 14.2164 5.78064 12.1434C5.85874 8.23109 7.80302 5.93854 11.6135 5.26576C14.2765 4.78341 16.8923 4.96251 19.4613 5.80308C21.6583 6.72683 22.8249 8.3925 22.961 10.8001Z" fill="white"/>
<path opacity="0.992" fill-rule="evenodd" clip-rule="evenodd" d="M85.7422 24.5561C85.8472 23.9317 85.8825 23.2869 85.8482 22.6217C88.0046 22.6217 90.1611 22.6217 92.3174 22.6217C92.2828 23.5012 92.3183 24.3609 92.4235 25.2008C92.5637 26.2206 93.1292 26.8475 94.1203 27.0814C96.3993 27.3512 97.4068 26.3303 97.1428 24.0188C96.8695 23.1684 96.3568 22.5057 95.605 22.0307C93.5547 20.8128 91.5043 19.5948 89.454 18.377C86.1226 16.1305 85.1151 13.0678 86.4315 9.1889C87.1124 7.5978 88.2613 6.50526 89.8782 5.91129C92.9428 4.88961 96.0183 4.85379 99.1047 5.80383C101.119 6.51919 102.338 7.93412 102.764 10.0486C102.817 11.1226 102.834 12.1972 102.817 13.2725C100.766 13.2725 98.7158 13.2725 96.6655 13.2725C96.6831 12.5194 96.6655 11.7671 96.6125 11.0158C96.346 10.065 95.7273 9.54561 94.7566 9.45756C92.8449 9.49743 92.0495 10.4825 92.3704 12.4128C92.6598 13.0643 93.1018 13.5838 93.6961 13.971C95.2356 14.9483 96.8264 15.8439 98.4684 16.6576C100.124 17.5476 101.521 18.7476 102.657 20.2576C102.958 20.7596 103.17 21.2969 103.294 21.8695C103.605 23.8767 103.464 25.8468 102.87 27.7799C102.292 29.0455 101.391 29.9949 100.165 30.6277C97.0118 31.8908 93.7948 32.07 90.5145 31.165C87.3578 30.1322 85.767 27.9292 85.7422 24.5561Z" fill="white"/>
<path opacity="0.992" fill-rule="evenodd" clip-rule="evenodd" d="M171.646 20.4707C170.853 20.3641 170.039 20.3283 169.207 20.3632C169.207 19.1453 169.207 17.9274 169.207 16.7095C172.105 16.7095 175.005 16.7095 177.903 16.7095C177.948 19.7572 177.895 22.802 177.744 25.8438C177.187 28.4857 175.614 30.1513 173.025 30.8408C170.293 31.5118 167.571 31.476 164.859 30.7334C162.357 29.8822 160.889 28.1449 160.458 25.5214C160.34 23.1419 160.287 20.7598 160.298 18.3752C160.316 16.3513 160.333 14.3274 160.351 12.3035C160.399 8.78316 162.079 6.54435 165.389 5.5871C167.899 4.94232 170.408 4.94232 172.919 5.5871C175.612 6.23888 177.221 7.94037 177.744 10.6916C177.872 11.7622 177.925 12.8369 177.903 13.9155C175.782 13.9155 173.661 13.9155 171.54 13.9155C171.58 12.9768 171.527 12.0454 171.381 11.1214C171.053 10.3954 170.505 9.94762 169.737 9.77814C168.312 9.48809 167.304 10.0075 166.715 11.3364C166.542 15.7747 166.506 20.2164 166.609 24.6617C166.679 25.5569 167.121 26.1837 167.934 26.5423C168.882 26.8091 169.802 26.7376 170.692 26.3274C171.224 25.9465 171.525 25.4272 171.593 24.7692C171.646 23.3368 171.664 21.9039 171.646 20.4707Z" fill="white"/>
<path opacity="0.988" fill-rule="evenodd" clip-rule="evenodd" d="M31.9743 5.74952C35.6761 5.71413 39.3704 5.74994 43.0567 5.85699C44.5936 14.1987 46.0959 22.5449 47.5639 30.8958C45.3368 30.8958 43.1097 30.8958 40.8827 30.8958C39.8322 23.3907 38.7187 15.9041 37.542 8.43609C36.4234 15.923 35.3098 23.4096 34.2014 30.8958C31.9378 30.9316 29.6754 30.8958 27.4141 30.7883C28.975 22.4498 30.4951 14.1036 31.9743 5.74952Z" fill="white"/>
<path opacity="0.987" fill-rule="evenodd" clip-rule="evenodd" d="M73.4397 14.0244C73.5629 12.0369 73.5806 10.0308 73.4927 8.00647C73.3752 8.17953 73.3222 8.35864 73.3336 8.54378C72.0132 15.9988 70.6698 23.4495 69.3037 30.896C67.1826 30.896 65.0616 30.896 62.9405 30.896C61.5744 23.4495 60.231 15.9988 58.9106 8.54378C58.922 8.35864 58.869 8.17953 58.7515 8.00647C58.6636 9.99502 58.6813 11.9652 58.8045 13.9169C58.7186 19.5761 58.6832 25.2359 58.6985 30.896C56.6127 30.896 54.5271 30.896 52.4414 30.896C52.5581 22.5109 52.7349 14.1288 52.9717 5.74975C56.3308 5.71395 59.689 5.74976 63.0466 5.85722C64.0459 12.141 65.0887 18.4096 66.1751 24.6632C67.1599 18.389 68.1674 12.1202 69.1976 5.85722C72.5552 5.74976 75.9134 5.71395 79.2725 5.74975C79.475 14.1339 79.6871 22.516 79.9088 30.896C77.7878 30.896 75.6668 30.896 73.5457 30.896C73.5608 25.2716 73.5255 19.6478 73.4397 14.0244Z" fill="white"/>
<path opacity="0.99" fill-rule="evenodd" clip-rule="evenodd" d="M109.073 5.75C111.194 5.75 113.315 5.75 115.436 5.75C115.418 12.2695 115.436 18.7889 115.489 25.3082C115.84 26.4333 116.6 27.0064 117.769 27.0276C118.893 27.0184 119.652 26.4811 120.05 25.4157C120.103 18.8606 120.121 12.3053 120.103 5.75C122.224 5.75 124.345 5.75 126.466 5.75C126.484 12.3053 126.466 18.8606 126.413 25.4157C125.956 28.8525 124.029 30.8406 120.633 31.3798C118.042 31.8416 115.497 31.6625 112.997 30.8425C110.545 29.7893 109.255 27.9087 109.126 25.2007C109.073 18.7173 109.055 12.2337 109.073 5.75Z" fill="white"/>
<path opacity="0.988" fill-rule="evenodd" clip-rule="evenodd" d="M133.148 5.75C136.259 5.75 139.371 5.75 142.481 5.75C144.303 12.2763 146.159 18.7958 148.049 25.3082C148.003 18.7887 147.914 12.2693 147.784 5.75C149.834 5.75 151.885 5.75 153.935 5.75C153.935 14.0246 153.935 22.2993 153.935 30.5739C150.975 30.6091 148.023 30.5733 145.079 30.4664C143.064 23.7679 141.049 17.0694 139.034 10.3709C139.127 17.1043 139.215 23.8387 139.299 30.5739C137.249 30.5739 135.198 30.5739 133.148 30.5739C133.148 22.2993 133.148 14.0246 133.148 5.75Z" fill="white"/>
<path opacity="0.587" fill-rule="evenodd" clip-rule="evenodd" d="M58.9132 8.54317C58.8075 10.3154 58.7721 12.1064 58.8071 13.9163C58.6839 11.9646 58.6662 9.99441 58.7541 8.00586C58.8716 8.17892 58.9246 8.35803 58.9132 8.54317Z" fill="white"/>
<path opacity="0.587" fill-rule="evenodd" clip-rule="evenodd" d="M73.4396 14.0238C73.4746 12.1781 73.4393 10.3512 73.3336 8.54317C73.3221 8.35803 73.3751 8.17892 73.4926 8.00586C73.5806 10.0302 73.5628 12.0362 73.4396 14.0238Z" fill="white"/>
<path opacity="0.502" fill-rule="evenodd" clip-rule="evenodd" d="M22.9602 10.8008C22.9602 11.5888 22.9602 12.3769 22.9602 13.165C20.8745 13.165 18.7888 13.165 16.7031 13.165C16.7031 12.4844 16.7031 11.8037 16.7031 11.1232C16.8081 11.7475 16.8434 12.3923 16.8092 13.0575C18.8242 13.0575 20.8391 13.0575 22.8541 13.0575C22.8197 12.2852 22.8551 11.5329 22.9602 10.8008Z" fill="white"/>
<path opacity="0.733" fill-rule="evenodd" clip-rule="evenodd" d="M169.205 16.7109C169.205 17.9288 169.205 19.1468 169.205 20.3647C170.037 20.3297 170.851 20.3655 171.644 20.4721C170.796 20.4721 169.947 20.4721 169.099 20.4721C169.064 19.1992 169.1 17.9455 169.205 16.7109Z" fill="white"/>
<path opacity="0.502" fill-rule="evenodd" clip-rule="evenodd" d="M92.4235 25.2002C92.3183 24.3603 92.2828 23.5006 92.3174 22.6211C90.1611 22.6211 88.0046 22.6211 85.8482 22.6211C85.8825 23.2863 85.8472 23.9311 85.7422 24.5555C85.7422 23.8749 85.7422 23.1942 85.7422 22.5137C87.9693 22.5137 90.1964 22.5137 92.4235 22.5137C92.4235 23.4092 92.4235 24.3048 92.4235 25.2002Z" fill="white"/>
</svg>
