<svg width="61" height="68" viewBox="0 0 61 68" fill="none" xmlns="http://www.w3.org/2000/svg">
<g clip-path="url(#clip0_187_532)">
<mask id="mask0_187_532" style="mask-type:luminance" maskUnits="userSpaceOnUse" x="0" y="0" width="61" height="68">
<path d="M61.0008 0H0V68H61.0008V0Z" fill="white"/>
</mask>
<g mask="url(#mask0_187_532)">
<path d="M7.85576 59.7845C7.75595 59.4639 7.46446 58.7434 7.38506 58.2114C7.20983 57.0331 7.82116 56.2571 8.38259 56.0794C9.01264 55.9022 9.25877 56.2211 9.50262 56.9622C9.81793 58.0908 9.85309 59.5697 9.74704 61.6868C9.60923 64.5788 8.17333 68.0714 4.604 67.9988C1.52293 67.9308 0.15962 65.9199 0.0178445 62.8519C-0.0490735 61.4057 0.0535719 59.9599 0.647894 57.9154C0.963203 56.8205 1.24449 56.4308 2.22274 56.2211C2.99173 56.0794 2.92254 56.8897 2.74844 57.8451C2.36508 59.9599 2.18701 60.9811 2.32878 63.3805C2.46602 65.9199 3.62348 66.9079 4.88358 66.9079C6.77373 66.9445 7.61304 65.3577 7.96464 63.0628C8.24195 61.2297 8.03269 60.3479 7.85576 59.7845ZM48.1563 62.2891C48.8924 62.2891 49.1033 63.1662 48.9275 63.6977C48.7517 64.2257 48.1228 64.8279 47.1434 65.0034C46.9325 64.4731 46.827 62.2891 48.1563 62.2891ZM34.4744 63.4845C34.4744 62.8874 34.1574 62.3931 33.7757 62.3931C33.457 62.3931 32.7249 62.7445 32.7249 63.8737C32.7249 64.7582 33.0368 65.1777 33.1797 65.3577C34.192 65.0388 34.4744 64.1902 34.4744 63.4845ZM23.5872 56.2914C23.5378 55.7257 23.0977 55.3405 22.5023 55.3405C21.8382 55.3405 21.2127 56.0428 21.2791 56.9251C21.3216 57.5068 21.6618 57.9851 22.3305 57.9851C23.0977 57.9857 23.6575 57.1039 23.5872 56.2914ZM29.2792 58.3628C29.2185 57.3765 28.9814 56.9314 28.4557 56.9679C27.7588 57.0102 27.4366 59.2199 27.579 61.5428C27.6697 63.0582 27.8937 63.2919 28.1024 63.2771C28.488 63.2537 29.413 60.5462 29.2792 58.3628ZM52.4969 62.0754C52.063 63.8885 50.7479 66.5559 48.7858 66.5559C48.3315 66.5559 47.5262 66.3782 47.5262 65.9199C47.5262 65.4257 50.6084 65.3577 50.6084 62.9931C50.6084 62.1125 49.8037 60.8765 48.6128 60.8765C47.0379 60.8765 45.5017 62.6062 45.5017 65.0039C45.5017 67.1537 46.827 67.8594 48.1568 67.8594C50.4678 67.8594 51.868 65.9536 52.6023 64.3679C52.954 65.4262 53.1604 67.8594 54.0388 67.8594C54.3876 67.8594 54.6343 67.6828 55.0545 66.7319C56.1019 64.3674 57.1182 61.6519 58.5189 61.6519C59.0424 61.6519 58.7287 62.6062 59.9883 62.6062C60.582 62.6062 61.0006 62.1125 61.0006 61.5457C61.0006 60.7337 60.2667 60.1011 59.1478 60.1011C55.8569 60.1011 55.1594 65.0742 54.6337 65.0742C53.7581 65.0742 54.0382 61.0885 53.4071 61.0885C52.8468 61.0879 52.5717 61.7605 52.4969 62.0754ZM24.4979 66.3068C25.0225 66.3068 25.9247 66.1354 26.6348 64.9897C26.2287 64.0811 25.9389 62.2451 25.8987 61.5765C25.69 58.1577 26.9971 54.9417 28.4279 54.8525C29.4771 54.7885 30.3164 55.7891 30.4128 57.4102C30.6708 61.6702 29.2627 63.4485 28.5578 64.9828C28.6769 65.5777 29.6784 66.5902 30.6232 66.5902C30.972 66.5902 31.3939 66.4137 31.4999 66.2708C31.4296 66.0257 31.3582 65.7085 31.3582 65.2485C31.3582 62.7799 32.9336 60.6982 34.2991 60.6982C35.384 60.6982 36.0141 62.1439 36.0141 63.0982C36.0141 64.2251 35.0681 65.1439 33.6691 66.0257C33.9152 66.2708 34.3678 66.4491 34.7545 66.4491C36.7513 66.4491 37.7959 64.0148 38.5694 61.7919C38.7089 61.3679 38.9556 60.7697 39.4445 60.7697C40.2843 60.7697 40.6359 66.3422 42.0321 66.3422C42.6293 66.3422 43.1181 65.1068 43.1181 64.1571C43.1181 63.4508 42.8731 63.3799 42.8731 62.3571C42.8731 61.2297 43.4686 60.2782 44.2756 60.2782C44.765 60.2782 44.9419 60.7697 44.9419 61.3679C44.9419 63.6257 43.3297 67.8234 40.9529 67.8234C39.1649 67.8234 39.3044 64.7194 38.6749 64.7194C37.9717 64.7194 36.9917 67.8582 33.5301 67.8582C32.9676 67.8582 32.3738 67.5765 31.885 67.0108C31.0462 67.5765 30.3442 67.8234 29.5389 67.8234C28.2453 67.8234 27.6839 66.4828 27.1605 66.4828C26.5293 66.4828 25.8312 67.8582 23.7289 67.8582C22.0492 67.8582 21.769 65.6034 21.1753 65.6034C20.649 65.6034 19.8443 67.8582 18.9698 67.8582C17.4976 67.8582 17.1857 63.9445 15.8882 63.9445C14.8736 63.9445 11.6667 67.9194 10.7962 67.8285C10.4463 67.7919 10.2988 67.5285 10.3357 67.1754C10.385 66.6874 10.8018 65.3811 10.9708 64.7634C11.2538 63.6908 11.5136 62.5154 11.6587 62.1405C11.8028 61.7622 12.1912 61.4925 12.5032 61.5217C12.6602 61.5365 12.7073 61.8319 12.7561 62.0759C12.933 62.9479 13.1797 63.8371 13.4582 63.8371C13.9498 63.8371 15.5734 60.6977 16.5182 60.6977C17.6751 60.6977 17.8135 65.6365 19.3878 65.6365C19.914 65.6365 20.3002 65.0028 20.649 64.2245C20.6847 62.9177 21.0346 61.0525 22.0843 61.0525C22.8199 61.0525 23.1703 62.7085 22.6435 64.1565C22.6424 65.8834 23.7613 66.3068 24.4979 66.3068Z" fill="white"/>
</g>
<path d="M48.8768 11.0016C48.6171 11.0016 48.245 11.0016 48.0403 10.5908C47.8724 10.2536 47.9292 9.71022 47.6133 9.46736C47.9292 9.5605 48.2632 9.5605 48.5229 9.5605C49.36 9.5605 50.1596 8.9805 50.7732 8.9805C51.1775 8.9805 51.3079 9.24279 51.3079 9.50393C51.3085 10.3285 49.6583 11.0016 48.8768 11.0016ZM49.2851 13.1165C51.2149 13.1165 52.982 11.5634 52.982 10.1976C52.982 9.5605 52.6837 9.03707 51.9221 8.94336C52.052 9.11193 52.1076 9.24279 52.1076 9.54222C52.1076 10.5719 50.5509 11.7136 48.8586 11.7136C48.245 11.7136 48.059 12.1434 48.059 12.3679C48.059 12.8925 48.5615 13.1165 49.2851 13.1165ZM49.1371 13.9028C49.3792 15.6799 52.052 18.0759 52.7762 18.0194C53.2605 17.9782 53.4459 15.6988 53.4459 13.9028C53.4459 12.8736 53.5021 12.0685 52.9627 11.8811C52.107 13.6222 49.8624 13.9776 49.1371 13.9028Z" fill="white"/>
<path d="M7.33297 25.675C7.96358 25.675 7.83372 21.7818 8.85507 21.7818C9.09722 21.7818 9.17151 22.0252 9.17151 22.3247C9.17151 23.2041 8.74392 24.4961 8.74392 25.2064C8.74392 25.5624 8.83692 25.675 9.00422 25.675C9.45052 25.675 10.2303 21.3887 10.9913 21.3887C11.2329 21.3887 11.3441 21.6321 11.3441 21.8755C11.3441 22.7738 10.2121 25.3561 10.2121 26.0858C10.2121 26.1984 10.2484 26.2915 10.342 26.2915C10.8065 26.2915 11.7348 24.271 12.0314 23.2607C12.1987 22.7361 12.4216 22.455 12.6263 22.455C12.8117 22.455 12.9796 22.6612 12.9796 23.0921C12.9796 24.1024 12.0501 26.479 11.2329 28.0704C10.6023 29.3052 9.61782 31.0818 9.61782 32.0738C9.61782 32.5795 9.70912 33.103 10.4339 33.7395C9.24523 33.6647 8.76263 33.5527 8.31746 32.6172C6.32976 36.603 11.9758 36.2104 10.0443 39.7458C9.69098 39.111 6.90594 38.4555 6.90594 34.7504C6.90594 31.5504 9.69098 29.679 9.69098 28.351C9.69098 28.0892 9.59911 27.8647 9.35752 27.659C8.74392 27.1338 8.7252 26.7047 8.2426 26.7047C7.89043 26.7047 7.4617 27.5275 7.90801 28.2572C8.05716 28.5007 8.18702 28.6504 8.18702 28.875C8.18702 29.3984 7.36926 30.8012 6.79422 30.8012C6.21805 30.8012 5.77344 29.3624 5.77344 27.0407C5.77344 24.9812 6.23676 22.9052 6.81293 22.9052C6.97966 22.9052 7.03524 23.0172 7.03524 23.1675C7.03524 23.411 6.96152 23.8967 6.96152 24.7201C6.96152 25.5995 7.16567 25.675 7.33297 25.675Z" fill="white"/>
<path d="M12.0702 31.1562C12.8511 31.1562 13.5004 30.5751 13.5004 29.2859V27.3762C13.5004 26.6465 13.5565 25.8236 14.0397 25.2425C13.9836 25.4865 13.9836 25.7482 13.9836 25.9916C13.9836 27.6014 14.8745 28.7059 14.8745 30.2585C14.8745 30.8379 14.7072 31.1568 14.2626 31.1568C13.835 31.1568 13.8724 30.7636 13.7789 30.7636C13.7051 30.7636 13.5934 31.0065 13.5934 31.2688C13.5934 31.6619 13.8719 32.2791 14.6516 32.2791C15.3208 32.2791 15.8584 31.6619 15.8584 30.9694C15.8584 29.2865 14.5586 27.4139 14.5586 25.6179C14.5586 24.8316 14.7628 24.3082 14.9301 23.8956C14.9301 27.6202 18.0684 30.3334 18.0684 31.8859C18.0684 32.2419 17.8087 32.5231 17.4185 32.5231C16.9915 32.5231 16.7868 32.1854 16.7868 31.9231C16.7868 31.7922 16.768 31.7551 16.7125 31.7551C16.6019 31.7551 16.2673 32.1294 16.2673 32.6168C16.2673 33.2334 16.768 33.9831 17.697 33.9831C18.7546 33.9831 19.3308 33.0836 19.3308 32.2791C19.3308 30.3151 15.5238 27.3391 15.5238 24.1585C15.5238 23.6151 15.6157 22.7356 16.007 22.0625C13.5554 23.6522 12.7944 25.7676 12.7944 27.6202C12.7944 29.2299 12.7388 30.0334 11.9216 30.0334C11.494 30.0334 11.3828 29.6414 11.2337 29.6414C11.1225 29.6414 11.0664 29.9779 11.0664 30.0711C11.0675 30.7631 11.5694 31.1562 12.0702 31.1562Z" fill="white"/>
<path d="M40.2055 10.0859C40.4414 9.92643 41.4883 10.179 42.8419 9.50471C43.0087 9.41271 43.176 9.375 43.3245 9.375C43.9756 9.375 43.8083 10.123 44.4032 10.123C44.8665 10.123 45.4625 9.72986 45.8158 9.72986C46.3693 9.72986 47.1683 11.4893 47.1683 12.3127C47.1683 13.267 45.741 13.8476 44.0499 13.8476C41.5813 13.8476 40.0938 11.6767 40.0938 10.2727C40.0943 10.1607 40.1505 10.123 40.2055 10.0859ZM44.2546 12.4624C45.0723 12.4624 45.6854 12.0881 45.6854 11.863C45.6854 11.7893 45.5742 11.7327 45.3321 11.7327C45.0905 11.7327 44.6073 11.7144 43.6965 11.5641C42.9151 11.4333 42.3208 11.1339 42.0979 11.1339C42.0236 11.1339 41.9862 11.171 41.9862 11.227C41.9862 11.7144 42.8788 12.4624 44.2546 12.4624Z" fill="white"/>
<path d="M12.4608 38.2121C11.8483 38.3624 10.8633 39.3338 10.8633 40.8704C10.8633 42.7029 12.8135 45.5298 16.0262 45.5298C18.7369 45.5298 19.4061 43.6395 19.4061 42.3658C19.4061 39.5406 17.6798 37.5566 15.433 37.5566C14.2069 37.5566 13.1107 38.4549 13.1107 39.7829C13.1107 41.0195 14.0396 42.8715 16.249 42.8715C17.2891 42.8715 17.9016 42.1218 17.9016 41.2635C17.9016 40.4206 17.1405 39.2612 16.0256 39.2612C15.6916 39.2612 15.4506 39.4835 15.4506 39.8406C15.4506 40.2886 16.0625 40.7389 16.8247 40.7389C17.0095 40.7389 17.1587 40.7012 17.2335 40.6635C17.2698 40.7212 17.2891 40.8138 17.2891 40.8886C17.2891 41.3195 16.8802 41.5818 16.249 41.5818C15.302 41.5818 14.3918 40.8709 14.3918 39.7458C14.3918 39.0738 14.968 38.5875 15.8033 38.5875C17.4558 38.5875 18.4398 40.0652 18.4398 41.5446C18.4398 42.8721 17.7167 43.6406 16.2303 43.6406C13.2587 43.6401 11.8115 40.9446 12.4608 38.2121Z" fill="white"/>
<path d="M33.6572 49.1767C34.5481 49.1767 34.5016 49.1018 34.7806 49.1018C35.0585 49.1018 35.0778 49.2704 35.0778 49.383C35.0778 49.795 34.167 50.3001 32.5513 50.3001C31.6043 50.3001 31.0281 49.7944 30.8614 49.2333C29.933 49.8321 28.5221 50.375 27.1287 50.375C23.3223 50.375 22.3565 48.7081 21.1673 48.167C20.2571 47.755 18.8643 48.5601 16.9141 46.3704C17.1744 46.427 17.5277 46.4453 17.8061 46.4453C19.5137 46.4453 20.4239 45.6047 20.4239 44.2561C20.4239 44.087 20.4051 43.9018 20.3864 43.7338C20.907 43.9395 22.0962 44.8367 22.3753 46.427C22.4115 46.6144 23.1726 46.7824 23.6558 46.7824C24.3249 46.7824 25.179 46.5013 25.3089 45.3984C27.5376 45.2116 29.0427 43.8836 29.3585 42.1973C30.1559 42.4596 31.0661 43.1893 31.289 43.5647C31.6048 43.4527 31.9757 43.3961 32.4027 43.3961C32.9971 43.3961 33.6662 43.5087 34.4642 43.7521C34.5016 43.5087 34.5384 43.2093 34.9105 43.2093C35.4674 43.2093 35.3188 43.827 35.5048 44.1807C35.5978 44.3681 36.0628 44.4801 36.0628 44.855C36.0628 45.2116 35.764 45.343 35.5785 45.343C35.5042 45.343 35.4112 45.3241 35.3551 45.3058C34.9842 45.4367 34.9649 48.1298 33.4054 48.1298C32.2547 48.1298 31.196 47.1756 30.7309 45.979C30.6011 45.6236 30.3226 45.3984 30.0623 45.3984C29.7657 45.3984 29.5984 45.455 29.2463 45.8481C28.2436 46.951 26.5718 47.9053 24.5104 47.9053C23.8786 47.9053 23.3773 47.8481 23.2469 47.8481C23.172 47.8481 23.172 47.867 23.172 47.8853C23.172 48.0167 23.8032 48.5224 25.1779 48.5224C28.4466 48.5224 29.2457 46.6693 29.7652 46.6693C29.8406 46.6693 30.0617 46.6693 30.1916 46.9693C30.9544 48.7647 32.6171 49.1767 33.6572 49.1767ZM32.2173 45.4367C32.2173 45.8487 32.5519 46.1858 32.9608 46.1858C33.3697 46.1858 33.7037 45.8487 33.7037 45.4367C33.7037 45.0241 33.3697 44.687 32.9608 44.687C32.5519 44.687 32.2173 45.0241 32.2173 45.4367Z" fill="white"/>
<path d="M46.929 36.0974C46.6687 36.0974 46.3902 36.3037 46.3902 36.81C46.3902 37.3694 46.8178 37.726 47.0589 37.8374C47.1893 37.9134 47.394 37.9883 47.5965 37.9883C48.1358 37.9883 48.5639 37.8374 48.5639 37.3877C48.5634 36.81 47.7263 36.0974 46.929 36.0974ZM44.9254 37.2568C44.5353 37.2568 42.378 40.1574 40.988 40.1574C40.654 40.1574 40.375 39.5214 40.375 39.0368C40.375 38.7745 40.5417 38.5871 41.1378 38.4551C44.3311 37.7254 43.6245 35.3105 46.3523 35.3105C47.8562 35.3105 49.5303 36.3414 49.5303 38.6608C49.5303 41.1311 46.0409 44.1991 45.5203 44.1991C45.0927 44.1991 44.6283 43.582 44.6283 43.1705C44.6283 43.0397 44.6844 42.8711 45.0559 42.7214C46.8366 42.0094 47.8568 40.3631 47.8568 39.5203C47.8568 39.3328 47.7643 39.1477 47.5227 39.1477C47.2074 39.1477 45.8555 42.2528 44.3492 42.2528C43.3075 42.2528 42.2481 41.3008 42.2481 40.8505C42.2481 40.1008 45.26 38.7174 45.26 37.6683C45.2594 37.2745 45.074 37.2568 44.9254 37.2568Z" fill="white"/>
<path d="M8.16923 12.7246C8.16923 12.7246 7.63105 13.1355 6.96244 13.1355C6.16453 13.1355 5.53278 12.5372 5.53278 11.6949C5.53278 11.1143 5.82994 10.516 6.5167 10.216C6.49855 10.3286 6.49855 10.4217 6.49855 10.5343C6.49798 11.6017 7.09231 12.4057 8.16923 12.7246ZM12.1435 16.3177C11.7352 16.8035 11.3076 17.6275 11.3076 18.4692C11.3076 19.4795 11.9212 20.3212 12.8682 20.3212C13.7779 20.3212 14.2055 19.5355 14.2055 18.7315C14.2055 17.4777 13.0724 16.5972 12.1435 16.3177ZM5.97852 17.0657C5.94336 17.1235 5.92238 17.1972 5.92238 17.272C5.92238 17.4406 6.10838 17.6275 6.27455 17.6275C6.42313 17.6275 6.51613 17.5903 6.59042 17.5903C7.0356 17.5903 7.53748 17.908 8.26167 17.908C8.68813 17.908 9.19001 17.7766 9.8212 17.4595C11.1584 16.7852 11.679 15.12 11.679 14.8389C11.679 14.4829 11.3955 14.5297 11.1584 14.2023C10.9214 13.876 11.0121 13.5875 10.8613 13.4349C10.7756 13.3475 10.5091 13.3417 10.1739 13.304C10.0622 13.292 9.91363 13.2852 9.76505 13.2852C9.15315 13.2852 8.42669 13.3612 7.6112 13.8846C6.00064 14.9206 6.23768 16.6355 5.97852 17.0657ZM10.3424 14.7452C10.4711 14.9217 10.8261 15.1389 10.8261 15.2697C10.8261 15.5309 10.6764 15.8686 10.3798 15.8686C9.72933 15.8686 9.20986 14.8766 9.20986 14.3143C9.20986 13.9595 9.41459 13.9223 9.69246 13.9223C9.82233 13.9223 9.87847 13.9412 9.97091 13.9972C10.1376 14.0909 10.1376 14.4646 10.3424 14.7452ZM8.63312 17.0286C8.02065 17.0286 7.35204 16.2617 7.35204 15.5686C7.35204 15.1949 7.63048 14.7263 7.83464 14.7263C7.90893 14.7263 7.94636 14.7829 7.96451 14.9143C8.07566 15.8309 8.67055 16.3555 9.22801 16.6166C9.28359 16.6537 9.32101 16.6726 9.32101 16.7097C9.32101 16.8412 8.96771 17.0286 8.63312 17.0286ZM10.2125 12.3126C10.3049 12.0126 10.3792 11.6395 10.3792 11.2269C10.3792 10.3292 9.96978 8.96289 8.70741 8.96289C7.98379 8.96289 7.46262 9.54289 7.46262 10.2355C7.46262 11.7143 8.93028 12.3126 10.2125 12.3126ZM5.40234 19.7977C5.40234 21.2195 5.82994 21.8937 6.59099 21.8937C7.18531 21.8937 7.98379 21.4629 8.93028 20.6395C8.20666 20.808 7.64863 20.9206 7.14788 20.9206C6.47927 20.9206 5.9598 20.6583 5.40234 19.7977ZM6.05281 18.132C6.03466 18.2263 6.03466 18.3195 6.03466 18.4126C6.03466 19.292 6.49798 19.7789 7.11102 19.7789C7.57377 19.7789 8.11365 19.4983 8.59512 18.88C8.3921 18.9172 8.14995 18.936 7.92708 18.936C7.24089 18.936 6.49798 18.7497 6.05281 18.132ZM10.6027 17.8703C10.1745 17.9823 9.28359 18.5063 9.28359 19.4417C9.28359 20.1149 9.80305 20.5463 10.4535 20.5463C10.7881 20.5463 11.0291 20.4709 11.1777 20.3589C10.6582 19.8537 10.4722 19.292 10.4722 18.7315C10.4722 18.3377 10.5278 18.0949 10.6027 17.8703ZM11.2707 12.7429C11.2707 13.1543 11.6047 13.492 12.013 13.492C12.4219 13.492 12.7565 13.1549 12.7565 12.7429C12.7565 12.3315 12.4219 11.9937 12.013 11.9937C11.6047 11.9937 11.2707 12.3315 11.2707 12.7429ZM12.2359 14.4269C12.2359 14.8389 12.5711 15.176 12.9805 15.176C13.3883 15.176 13.7229 14.8389 13.7229 14.4269C13.7229 14.016 13.3883 13.6789 12.9805 13.6789C12.5705 13.6789 12.2359 14.016 12.2359 14.4269Z" fill="white"/>
<path d="M41.2097 23.6144C41.2097 23.2407 41.5443 22.9224 41.9113 22.9224C42.3207 22.9224 42.6366 23.2407 42.6366 23.6144C42.6366 24.0447 42.3201 24.3447 41.9113 24.3447C41.5443 24.3447 41.2097 24.0447 41.2097 23.6144ZM34.6892 17.851C34.6892 18.2624 35.0244 18.5996 35.4315 18.5996C35.8416 18.5996 36.1762 18.2624 36.1762 17.851C36.1762 17.4401 35.841 17.103 35.4315 17.103C35.0244 17.103 34.6892 17.4401 34.6892 17.851ZM34.0586 20.4893C34.0586 21.0698 34.5401 21.5556 35.1168 21.5556C35.6918 21.5556 36.1762 21.0698 36.1762 20.4893C36.1762 19.9098 35.6918 19.4224 35.1168 19.4224C34.5401 19.4224 34.0586 19.9098 34.0586 20.4893ZM36.399 19.2916C36.399 19.9287 36.9009 20.4333 37.5287 20.4333C38.1599 20.4333 38.6635 19.9287 38.6635 19.2916C38.6635 18.6556 38.1599 18.1504 37.5287 18.1504C36.9009 18.1504 36.399 18.6556 36.399 19.2916ZM36.4926 16.859C36.4926 17.2527 36.8085 17.5716 37.1947 17.5716C37.5848 17.5716 37.9007 17.2527 37.9007 16.859C37.9007 16.467 37.5843 16.1487 37.1947 16.1487C36.8085 16.1487 36.4926 16.467 36.4926 16.859ZM39.8527 15.0636C39.8527 15.4556 40.1686 15.7738 40.5593 15.7738C40.9495 15.7738 41.2659 15.4556 41.2659 15.0636C41.2659 14.6698 40.9495 14.3516 40.5593 14.3516C40.1686 14.3516 39.8527 14.6698 39.8527 15.0636ZM38.4587 17.3653C38.4587 18.0196 38.9975 18.5618 39.648 18.5618C40.299 18.5618 40.8383 18.0196 40.8383 17.3653C40.8383 16.7093 40.2996 16.1676 39.648 16.1676C38.9975 16.1676 38.4587 16.7093 38.4587 17.3653ZM36.5476 21.7436C36.5476 22.1556 36.8822 22.4916 37.2877 22.4916C37.6966 22.4916 38.0317 22.1556 38.0317 21.7436C38.0317 21.3316 37.6966 20.995 37.2877 20.995C36.8822 20.995 36.5476 21.3316 36.5476 21.7436ZM38.9793 20.2458C38.9793 20.6578 39.3134 20.995 39.7234 20.995C40.1317 20.995 40.4663 20.6578 40.4663 20.2458C40.4663 19.835 40.1317 19.4978 39.7234 19.4978C39.3134 19.4978 38.9793 19.835 38.9793 20.2458ZM38.292 22.8847C38.292 23.5956 38.8676 24.1761 39.5742 24.1761C40.2803 24.1761 40.8576 23.5956 40.8576 22.8847C40.8576 22.1738 40.2803 21.5933 39.5742 21.5933C38.8676 21.5933 38.292 22.1738 38.292 22.8847ZM40.9676 21.2933C40.9676 21.7807 41.3583 22.1738 41.8381 22.1738C42.3213 22.1738 42.7114 21.7807 42.7114 21.2933C42.7114 20.8076 42.3213 20.4144 41.8381 20.4144C41.3583 20.4144 40.9676 20.8076 40.9676 21.2933ZM40.912 18.9356C40.912 19.367 41.2659 19.7224 41.6884 19.7224C42.1165 19.7224 42.4698 19.367 42.4698 18.9356C42.4698 18.5058 42.1165 18.1504 41.6884 18.1504C41.2659 18.1504 40.912 18.5058 40.912 18.9356Z" fill="white"/>
<path d="M42.803 43.4886C42.3198 43.8635 41.1902 44.7041 39.3125 44.7041C38.3093 44.7041 37.863 44.3858 37.7144 44.3858C37.5284 44.3858 37.3242 44.5726 37.1195 44.8166C36.6783 45.3412 36.1016 46.3144 36.1016 47.3801C36.1016 48.1281 36.6783 48.8755 37.7513 48.8755C41.2276 48.8755 43.8255 46.6869 43.8255 44.9104C43.8255 43.9006 43.2312 43.4886 42.803 43.4886ZM41.8372 43.2829C41.9875 43.1538 42.0227 42.9464 42.0227 42.7395V42.3092C42.0227 41.7658 41.2089 41.4492 40.0934 41.4492C38.7363 41.4492 38.0116 42.0652 38.0116 42.3281V43.1886C38.0116 43.5452 38.8299 43.9006 39.8337 43.9006C40.6327 43.9006 41.3575 43.6949 41.8372 43.2829ZM41.6875 45.1355C41.7811 45.1355 41.8917 45.1909 41.8917 45.5286C41.8917 45.9395 41.7068 46.4818 41.041 46.9115C40.5766 47.2309 39.9442 47.4932 39.0153 47.5098C39.1639 47.0624 39.2756 46.5932 39.2756 46.1464C39.2756 45.9961 39.2575 45.8835 39.2388 45.7155H39.4804C40.9486 45.7161 41.5809 45.1355 41.6875 45.1355Z" fill="white"/>
<path d="M34.5986 22.2695C34.8027 23.8592 36.922 23.0547 36.922 24.9815C36.922 25.2627 36.8477 25.6752 36.8477 26.0301C36.8477 26.4421 36.884 26.7975 37.197 26.7975C37.5123 26.7975 37.5872 26.5735 37.5872 26.2735C37.5872 25.9735 37.5123 25.5998 37.5123 25.3941C37.5123 24.7387 37.9773 24.5895 38.2569 24.5895C38.963 24.5895 39.5017 25.3192 40.5616 25.3192C40.3195 26.517 37.8662 26.1987 37.8662 27.509C37.8662 28.1644 38.5167 28.313 38.9443 28.313C39.3344 28.313 39.4649 28.257 39.4649 27.921C39.4649 27.733 39.4274 27.5272 39.4274 27.3964C39.4274 27.321 39.4836 27.2461 39.5766 27.2461C39.9866 27.2461 41.9885 28.781 41.9885 29.2495C41.9885 29.6792 39.8737 30.1095 39.2607 30.1095C39.0747 30.1095 39.0373 29.9787 39.0373 29.9038C39.0373 29.773 39.3531 29.3798 39.3531 29.1558C39.3531 28.9872 39.0747 28.8747 38.3306 28.8747C37.9773 28.8747 37.717 28.9124 37.717 29.1935C37.717 29.6975 38.5348 30.3158 38.5348 30.7827C38.5348 31.1575 38.3119 31.3821 37.717 31.3821C37.2152 31.3821 36.4564 30.9884 36.4564 30.3341C36.4564 29.8101 36.9923 29.2872 36.9923 28.9684C36.9923 28.8747 36.9214 28.725 36.6985 28.725C36.0101 28.725 35.8246 30.5581 33.3906 30.7644C33.7808 30.409 34.1142 30.0158 34.1142 29.2124C34.1142 28.8192 34.0224 28.5004 34.0224 28.0707C34.0224 27.509 34.2815 27.2278 34.653 27.2278C35.3398 27.2278 35.6743 28.2004 36.1218 28.2004C36.3639 28.2004 36.6237 27.977 36.6237 27.6398C36.6237 26.2175 33.9112 26.4232 33.9112 24.421C33.9118 23.8781 34.0967 23.2044 34.5986 22.2695ZM43.4567 27.7524C43.4567 28.2192 43.6064 28.7621 44.0709 28.7621C44.461 28.7621 44.795 28.1644 44.795 27.509C44.795 26.7604 44.6652 26.1798 44.6652 25.8798C44.6652 25.7495 44.7213 25.6935 44.795 25.6935C45.0741 25.7124 45.3338 26.4792 45.6321 26.4792C45.9667 26.4792 46.4652 25.861 46.6687 25.861C46.7249 25.861 46.743 25.9364 46.743 25.9547C46.743 26.2358 46.3154 26.8541 46.3154 27.097C46.3154 27.3027 47.3935 27.3398 47.3935 27.5272C47.3935 27.8084 46.2633 27.8084 45.7251 28.0518C45.2051 28.2758 44.8875 28.5564 44.8875 28.9312C44.8875 29.3055 45.2595 29.3798 45.7801 29.3798C47.0209 29.3798 47.8943 28.7067 48.1727 28.7067C48.2283 28.7067 48.2651 28.7432 48.2651 28.7998C48.2651 28.9872 47.6339 29.6044 47.6339 29.8855C47.6339 30.2032 48.7863 30.5764 48.7676 30.7644C48.7494 30.8204 48.6746 30.8387 48.5447 30.8387C48.3394 30.8387 48.0241 30.7827 47.782 30.7827C47.6334 30.7827 47.5035 30.801 47.4468 30.8758C47.3181 31.0261 47.4842 32.0181 47.2256 32.0181C46.9835 32.0181 46.3517 29.8101 44.9249 29.8101C44.7202 29.8101 44.5716 29.9787 44.5716 30.2592C44.5716 31.0072 45.2964 31.8678 45.9843 32.2798C46.2956 32.4861 46.8168 32.6918 46.8168 32.805C46.8168 33.0284 45.6309 32.8232 45.6309 33.197C45.6309 33.5341 45.7795 34.0404 45.7795 34.3387C45.7795 34.4324 45.7608 34.5438 45.6497 34.5438C45.4268 34.5438 44.8869 33.5153 44.6272 33.5153C44.4043 33.5153 43.9211 34.1324 43.7164 34.1324C43.6608 34.1324 43.624 34.0764 43.624 34.021C43.624 33.5901 44.3119 32.6175 44.3119 31.6627C44.3119 31.2135 44.2557 30.2404 43.7164 30.2404C43.2707 30.2404 42.7682 30.9513 42.5453 31.6627C42.416 32.0741 42.5085 33.665 42.2108 33.665C41.9323 33.665 42.0066 32.5987 41.634 32.5987C41.3601 32.5987 40.7652 33.1033 40.5605 33.1033C40.5231 33.1033 40.4856 33.0844 40.4856 33.0473C40.4856 32.8233 41.0249 32.093 41.0249 31.9432C41.0249 31.6627 39.7983 31.6255 39.7983 31.401C39.7983 31.2695 40.2815 31.1764 40.7272 31.101C41.672 30.9324 43.0654 30.2404 43.0654 29.2678C43.0654 28.1827 42.0247 27.7141 41.3408 27.265C40.9875 27.0404 40.5974 26.8541 40.5974 26.7044C40.5974 26.5541 41.0431 26.5541 41.2291 26.5541C41.5076 26.5541 41.7832 26.5352 41.7832 26.3112C41.7832 26.1421 41.7457 25.8061 41.7457 25.5438C41.7457 25.3564 41.7639 25.2067 41.8393 25.2067C42.1178 25.2067 42.5079 26.1232 42.6945 26.1232C42.9911 26.1232 43.4 25.3747 43.6795 25.3747C43.7714 25.3747 43.8094 25.4312 43.8094 25.5992C43.8106 26.2918 43.4567 27.0775 43.4567 27.7524Z" fill="white"/>
<path d="M35.1352 32.9341C35.9904 33.0467 36.1951 33.3455 36.1951 33.5895C36.1951 34.0015 35.8231 34.1318 35.4693 34.1318C35.2101 34.1318 34.9124 34.0758 34.5965 34.0758C34.187 34.0758 33.7793 34.1695 33.4453 34.5627C33.6863 34.5998 34.0396 34.769 34.0396 35.1438C34.0396 36.229 31.0498 35.3295 31.0498 38.1193C31.0498 39.597 32.5731 41.2073 34.8749 41.2073C36.0653 41.2073 36.8269 40.8141 36.8269 40.3638C36.8269 40.009 36.1957 40.2513 36.1957 39.9518C36.1957 39.821 36.4186 39.577 36.4186 39.3701C36.4186 39.2798 36.3443 39.1101 36.1957 39.1101C35.86 39.1101 35.2282 39.6513 33.9466 39.6513C32.9434 39.6513 31.9589 39.073 31.9589 38.2861C31.9589 38.1181 32.0338 38.0238 32.1449 38.0238C32.2566 38.0238 32.4046 38.0992 32.5351 38.0992C32.6468 38.0992 32.6649 38.0238 32.6649 37.8187C32.6649 37.6124 32.6649 37.0318 33.0171 37.0318C33.371 37.0318 34.0396 38.3421 36.604 38.3421C37.4552 38.3421 39.1095 38.1747 39.7231 37.6124C39.7044 39.6713 38.1051 42.3844 34.7638 42.3844C31.2908 42.3844 29.4336 39.577 29.4336 36.9941C29.4336 34.1318 31.7542 31.5312 34.9311 31.5312C35.7471 31.5312 36.4362 31.8112 36.4362 32.1672C36.4356 32.6547 35.2277 32.3547 35.1352 32.9341ZM40.8374 33.9273C40.9673 34.1318 41.0234 34.3381 41.0234 34.525C41.0234 35.0495 40.6701 35.5358 40.6701 36.0793C40.6701 36.6964 41.1352 37.201 41.8378 37.201C42.5994 37.201 43.12 36.585 43.12 35.8541C43.12 34.8621 42.228 34.0204 40.8374 33.9273ZM34.6889 35.1244C34.8738 35.3107 34.9305 35.4981 34.9305 35.6855C34.9305 35.9661 34.8006 36.2661 34.8006 36.5844C34.8006 37.0318 35.1352 37.4255 35.6173 37.4255C36.1384 37.4255 36.4923 37.013 36.4923 36.5284C36.4923 35.817 35.7653 35.1244 34.6889 35.1244ZM37.1575 31.9427C39.1089 32.317 40.1683 33.7958 40.1683 35.181C40.1683 36.1358 39.5739 37.0135 38.5327 37.0135C37.5845 37.0135 36.9006 36.3592 36.9006 35.3112C36.9006 34.5255 37.5097 33.7021 37.5097 32.897C37.5097 32.5792 37.4172 32.261 37.1575 31.9427ZM38.1239 34.4318C38.1239 34.6935 38.3099 34.8998 38.5702 34.8998C38.8668 34.8998 39.0533 34.6375 39.0533 34.3381C39.0533 33.9455 38.7 33.4027 38.3654 33.4027C38.2163 33.4027 38.2724 33.6272 38.2356 33.8707C38.2163 34.057 38.1239 34.2815 38.1239 34.4318Z" fill="white"/>
<path d="M17.6232 15.1769C18.2544 15.1769 18.978 11.7334 18.978 11.1529C18.978 11.0031 18.923 10.8906 18.7931 10.8906C18.217 10.8906 17.4191 14.166 17.4191 14.8963C17.4185 15.0271 17.4553 15.1769 17.6232 15.1769ZM22.1731 16.206C22.6364 16.206 23.1564 14.4089 23.1564 13.286C23.1564 13.0426 23.1196 12.7814 23.0073 12.7814C22.6171 12.7814 21.9672 14.634 21.9672 15.6443C21.9678 16.0374 22.0613 16.206 22.1731 16.206ZM19.1442 14.5403C19.3483 14.5403 19.6086 14.3146 20.0929 13.7734C20.1292 13.53 20.1292 13.3049 20.1292 13.0243C20.1292 12.6506 19.9807 12.2386 19.7583 12.2386C19.2003 12.2386 18.9224 13.7357 18.9224 14.1294C18.923 14.3529 19.0336 14.5403 19.1442 14.5403ZM21.6893 13.7734C21.6893 13.4546 21.6145 13.3797 21.5407 13.3797C21.3547 13.3797 21.1511 13.6049 20.854 14.11C20.8908 14.7837 21.0026 15.0831 21.188 15.0831C21.3922 15.0831 21.6893 14.4277 21.6893 13.7734ZM23.1196 11.5649C24.3456 11.5649 24.902 12.6317 24.902 13.8294C24.902 14.3529 24.7545 15.1209 24.5129 15.1209C24.2713 15.1209 24.3088 14.69 24.2713 14.2969C24.2345 13.7917 24.1409 13.6797 23.9736 13.6797C23.6577 13.6797 23.4541 14.4277 23.4541 15.1209C23.4541 15.5506 23.5284 16.0374 23.8619 16.0374C24.0479 16.0374 24.2152 15.9437 24.3269 15.8317C24.2526 16.6917 23.6203 17.4414 22.7294 17.4414C21.095 17.4414 20.482 15.5134 20.2971 14.3906C19.3126 15.4386 18.403 16.206 16.768 16.206C15.2459 16.206 14.5586 15.0831 14.5586 14.0169C14.5586 13.698 14.6697 12.8751 15.0605 12.8751C15.5244 12.8751 15.1161 14.4089 16.0257 14.4089C16.2491 14.4089 16.6563 14.2214 16.8803 13.6049C17.0102 13.23 17.0845 12.838 17.0845 12.5003C17.0845 11.9946 16.9733 11.6774 16.6019 11.6774C16.2854 11.6774 15.8953 11.9197 15.7654 12.0511C16.2117 10.7037 17.2886 10.0117 18.4756 10.0117C19.9444 10.0117 20.7236 11.3214 20.7236 12.7814C20.7236 12.9866 20.7048 13.2111 20.6674 13.4174C21.2992 12.3694 22.1731 11.5649 23.1196 11.5649Z" fill="white"/>
<path d="M19.6452 16.5977C18.8468 16.5977 18.8099 17.5725 18.8099 19.5359C18.215 18.2451 17.2317 16.8599 16.0799 16.8599C15.3001 16.8599 15.0035 17.3845 15.0035 18.3005C15.0035 18.4879 15.0217 18.7691 15.0591 18.9365C15.1521 18.6194 15.4493 18.4879 15.8201 18.4879C16.6198 18.4879 17.585 19.1051 18.2162 19.9479C17.4925 19.8171 16.7865 19.6857 16.1927 19.6857C15.8207 19.6857 15.4867 19.7234 15.2082 19.8542C14.6695 20.0971 13.9453 20.9022 13.9453 22.1188C13.9453 22.3062 13.964 22.5114 14.0015 22.7359C14.6514 21.2759 16.3782 20.6211 17.4925 20.6211C17.716 20.6211 17.8821 20.6399 18.0126 20.6588C17.4364 21.1822 17.3071 22.0994 17.2691 22.7171C17.2515 23.0165 17.1392 23.0359 16.9345 23.0359C16.9345 23.6525 17.4182 24.5702 17.4182 25.0377C17.4182 25.2062 17.3252 25.3559 17.2328 25.3937C17.2328 26.2171 18.0489 26.8159 18.0489 27.3394C18.0489 27.4702 18.0126 27.5828 17.9559 27.6394C18.0126 27.9765 18.9109 28.5428 19.0271 28.8268C19.17 29.1719 19.3305 29.2302 19.4235 29.2302C19.7394 29.2302 20.2396 28.8554 20.2396 28.5182C20.2396 28.4062 20.1466 28.2754 20.0734 28.2188C19.7201 27.9577 19.5341 27.3959 19.3855 27.0222C19.2551 27.0222 19.0872 26.9668 19.0282 26.7462C18.9267 26.3588 18.9216 25.6371 18.773 25.2062C18.5315 25.1502 18.4197 25.0565 18.4197 24.5514C18.4197 24.3079 18.5689 23.3531 18.5689 23.0159C18.4577 23.0159 18.3092 22.9411 18.3092 22.7165C18.3092 22.1182 18.904 21.6502 19.0702 20.8834C20.129 21.6685 20.3882 22.4731 20.3882 23.1851C20.3882 23.5582 20.3326 23.9142 20.2583 24.2519C21.0386 23.8582 22.2085 23.2782 22.2085 22.0994C22.2085 21.4062 21.8927 20.6394 19.7938 20.3399C20.4437 20.0965 21.2615 19.9662 21.9482 19.9662C23.1375 19.9662 23.8242 20.3399 23.9722 21.1817C24.2138 20.8079 24.3998 20.3771 24.3998 19.9845C24.3998 19.0668 23.6376 18.4691 22.6724 18.4691C21.5394 18.4691 20.5367 19.0668 19.4592 19.7977C19.9435 18.7874 20.2759 18.1885 20.8713 18.1885C20.9638 18.1885 21.0568 18.2074 21.1498 18.2262C20.9269 17.4034 20.0916 16.5977 19.6452 16.5977Z" fill="white"/>
<path d="M50.9385 30.0898C51.8686 30.0898 52.6115 31.3058 52.6115 32.7287C52.6115 34.2441 51.9049 35.8916 50.6453 37.0133C50.6266 34.4876 47.5586 35.2921 47.5586 33.459C47.5586 32.6733 48.1172 32.1487 48.7864 32.1487C49.3813 32.1487 49.8457 32.3173 50.1803 32.655C49.8457 32.3361 49.6784 31.8864 49.6784 31.4567C49.6784 30.7441 50.1247 30.0898 50.9385 30.0898Z" fill="white"/>
<path d="M34.3537 12.3133C34.8374 12.7813 35.2633 12.9865 35.7839 12.9865C35.9892 12.9865 36.2314 12.931 36.3618 12.931C36.5291 12.931 36.6397 13.0053 36.6397 13.1362C36.6397 13.3425 36.4537 13.6796 36.2314 13.867C36.4537 13.9602 36.6958 13.9979 36.9561 13.9979C38.0109 13.9979 39.2189 13.3236 39.2189 11.6402C39.4429 11.9385 39.5727 12.5567 39.5727 12.8379C39.5727 14.8773 38.0852 15.663 36.714 15.663C35.8219 15.663 35.375 15.363 35.2628 15.363C34.9106 15.363 34.9293 16.075 34.6877 16.0562C34.2601 15.9813 33.8711 15.027 33.8711 14.0167C33.8717 13.4173 34.0202 12.7813 34.3537 12.3133ZM37.1569 10.947C37.0083 10.7036 36.4537 10.5733 36.1945 10.5733C35.3756 10.5733 34.8182 11.1527 34.707 11.6773C34.6327 11.4899 34.5771 11.2653 34.5771 11.0407C34.5771 10.2173 35.1346 9.20703 36.4922 9.20703C37.6775 9.20703 38.1419 9.84303 38.3098 9.84303C38.4952 9.84303 38.6812 9.6556 38.8304 9.6556C39.0346 9.6556 39.0346 9.97389 39.0346 10.199C39.0346 10.947 38.6994 12.2385 37.8635 12.7065C37.7143 12.3882 37.4172 12.0322 36.9374 11.8082C36.8075 11.7522 36.752 11.6402 36.752 11.5276C36.7514 11.3213 36.9368 11.059 37.1569 10.947Z" fill="white"/>
<path d="M21.4483 6.86753C21.4483 7.52239 23.7695 10.7224 24.2158 10.7224C24.5878 10.7224 24.8657 10.0675 24.8657 9.50525C24.8657 9.35668 24.8283 9.20753 24.7551 9.09439C24.4205 8.62639 22.0619 6.75496 21.5413 6.75496C21.4852 6.75496 21.4483 6.81153 21.4483 6.86753ZM7.7982 4.9401C7.7982 5.31496 6.38726 6.56811 5.88651 6.56811C5.70106 6.56811 5.64435 6.34411 5.64435 6.13839C5.64435 5.76468 5.81165 5.2401 6.01637 5.07096C6.25682 4.84639 6.81428 4.73553 7.24131 4.73553C7.50104 4.73553 7.7982 4.79039 7.7982 4.9401ZM24.7551 6.02582C24.7551 4.90239 21.7421 2.86296 21.7086 1.9841C21.7052 1.90353 21.7489 1.82353 21.8164 1.7521C22.3324 1.20353 24.4755 0.803532 24.4755 0.336103C24.4755 0.093817 24.0292 0.093817 23.8063 0.093817C22.0795 0.093817 19.5537 0.729817 19.5537 1.34696C19.5537 1.9841 21.8192 3.53725 21.8192 4.30468C21.8192 4.51039 21.6894 4.58525 21.4846 4.58525C20.854 4.58525 19.4794 3.81725 18.8295 3.81725C18.5323 3.81725 18.42 4.02296 18.42 4.32353C18.42 5.22125 19.4788 6.92411 19.4788 7.42811C19.4788 7.48468 19.4601 7.55953 19.3858 7.55953C19.0512 7.55953 17.4741 5.68925 16.9161 5.68925C16.7125 5.68925 16.6932 5.96925 16.6932 6.38125V7.01725C16.6932 7.44753 16.6745 7.70982 16.4715 7.70982C15.9871 7.70982 15.7648 6.3441 15.301 6.3441C14.8178 6.3441 14.7248 8.77611 14.2615 8.77611C13.7221 8.77611 14.1866 6.1001 13.6666 6.1001C13.091 6.1001 12.4405 7.87839 12.0316 7.87839C11.8836 7.87839 11.8467 7.72811 11.8467 7.59725C11.8467 7.05496 12.1615 6.17553 12.1615 5.6521C12.1615 5.38925 12.0872 5.2401 11.8655 5.2401C11.2887 5.2401 10.0263 6.17553 9.54374 6.17553C9.46945 6.17553 9.37645 6.13839 9.37645 6.06296C9.37645 5.61496 11.4004 4.1921 11.4004 3.5561C11.4004 2.93782 8.6137 3.35039 8.6137 2.63839C8.6137 2.0401 10.6025 1.42239 10.6025 0.804674C10.6025 0.261817 8.24338 0.0195312 7.33375 0.0195312C6.23754 0.0195312 5.64379 0.149246 5.64379 0.467531C5.64379 0.954389 8.13279 1.10467 8.13279 1.53439C8.13279 1.94639 5.55078 3.05039 5.55078 3.68639C5.55078 4.2481 9.19044 3.72353 9.19044 4.30468C9.19044 4.9401 6.0158 7.69039 6.0158 8.60753C6.0158 8.81382 6.16439 8.90753 6.36797 8.90753C7.33375 8.90753 9.83977 7.05496 10.5277 7.05496C10.7692 7.05496 10.788 7.35382 10.788 7.61611C10.788 8.10296 10.6212 8.85096 10.6212 9.39439C10.6212 9.82411 10.7324 10.1235 11.1033 10.1235C11.7917 10.1235 12.4218 8.94468 12.8874 8.94468C13.4811 8.94468 13.1284 12.4064 14.0199 12.4064C14.7809 12.4064 15.0962 8.66411 15.5794 8.66411C16.0626 8.66411 16.4533 9.74925 16.8985 9.74925C17.4548 9.74925 17.1951 7.85953 17.79 7.85953C18.4393 7.85953 20.2966 10.1052 21.1325 10.1052C21.3922 10.1052 21.4846 9.89896 21.4846 9.63668C21.4846 8.64468 20.1111 6.4001 20.1111 5.68925C20.1111 5.50239 20.1661 5.44582 20.3703 5.44582C21.0945 5.44582 23.2126 6.4561 24.2147 6.4561C24.5515 6.4561 24.7551 6.26925 24.7551 6.02582ZM22.823 2.32067C22.823 2.65725 23.9929 3.38753 24.5322 3.38753C24.8475 3.38753 24.9405 2.95668 24.9405 2.50753C24.9405 1.94639 24.7001 1.92753 24.2164 1.92753C23.6033 1.92753 22.823 2.0961 22.823 2.32067ZM18.4586 0.411531C18.4586 0.29896 17.9017 0.186388 17.1406 0.186388C15.9333 0.186388 16.1006 1.19839 15.1722 1.19839C14.2065 1.19839 14.4469 0.149246 13.2214 0.149246C12.4785 0.149246 11.7923 0.280674 11.7923 0.448674C11.7923 0.673817 12.6645 0.580103 12.6645 1.19839C12.6645 1.85267 10.7885 2.0401 10.7885 2.43325C10.7885 2.5641 10.9365 2.6201 11.1226 2.6201C11.532 2.6201 12.1808 2.43325 12.6458 2.43325C12.9061 2.43325 13.1477 2.48868 13.1477 2.7321C13.1477 3.2001 12.1439 4.04239 12.1439 4.41668C12.1439 4.52925 12.2363 4.56696 12.3293 4.56696C12.7014 4.56696 13.3331 3.6121 13.9269 3.6121C14.9114 3.6121 14.262 5.72639 14.7996 5.72639C15.3565 5.72639 15.1155 3.64868 15.914 3.64868C16.565 3.64868 17.0471 5.08982 17.4928 5.08982C17.6045 5.08982 17.697 4.99668 17.697 4.86525C17.697 4.47325 17.1401 3.66753 17.1401 3.1441C17.1401 2.82582 17.3629 2.67553 17.6601 2.67553C18.0866 2.67553 18.6627 2.93782 18.9775 2.93782C19.0886 2.93782 19.2003 2.90068 19.2003 2.76982C19.2003 2.32068 17.5489 1.83439 17.5489 1.25439C17.5495 0.673817 18.4586 0.673817 18.4586 0.411531Z" fill="white"/>
<path d="M51.3811 3.44407C51.3811 5.10864 50.1772 6.38122 48.0018 6.73665C48.2439 6.75493 48.4668 6.75493 48.6902 6.75493C51.2326 6.75493 52.1626 5.5955 52.1626 4.62293C52.1626 4.0795 51.8649 3.59379 51.3811 3.44407ZM48.2439 5.33322C48.2439 4.00464 45.0891 3.6675 45.0891 3.36864C45.0891 3.12579 46.8506 2.71321 47.7608 2.69436C46.368 0.898356 44.3831 1.08578 44.3831 0.767498C44.3831 0.58007 45.8695 0.205212 47.2419 0.205212C48.3931 0.205212 49.4706 0.467498 49.4706 1.34693C49.4706 1.83436 49.0804 2.34007 49.0804 3.0875C49.0804 3.4995 49.2834 3.85493 49.8239 3.85493C50.4012 3.85493 50.5299 3.23779 50.5299 2.58179C50.5299 2.04007 50.4375 1.62807 50.4375 1.36578C50.4375 0.58007 50.9723 0.0566406 51.7344 0.0566406C52.3662 0.0566406 52.5153 0.336069 53.4448 0.336069C52.9424 0.636641 52.7569 1.1795 52.7569 1.44064C52.7569 2.2275 53.2599 2.76979 53.2599 4.3795C53.2599 7.33493 50.5118 8.38293 47.1489 8.38293C46.2245 8.38293 45.2383 8.30808 44.2714 8.15893C44.1234 8.14008 44.0859 8.10293 44.0859 8.00922C44.0859 7.76579 45.4062 7.63436 45.4062 6.43779C45.4062 5.96922 45.257 5.52065 45.257 5.35265C45.257 5.25893 45.3313 5.20236 45.4062 5.20236C45.6846 5.20236 46.2432 6.2875 47.2799 6.2875C47.5555 6.2875 48.2439 6.19379 48.2439 5.33322ZM51.27 1.19836C51.27 1.4595 51.4741 1.66521 51.7344 1.66521C51.9947 1.66521 52.1995 1.4595 52.1995 1.19836C52.1995 0.93607 51.9947 0.729784 51.7344 0.729784C51.4741 0.729784 51.27 0.93607 51.27 1.19836Z" fill="white"/>
<path d="M49.6231 18.4877C49.6231 18.0951 48.6375 18.058 48.545 16.9534C48.5258 16.7854 48.4702 16.4865 48.2655 16.4865C47.9314 16.4865 48.1912 17.5157 47.8197 17.5157C46.9657 17.5157 46.6872 15.8311 46.3713 15.8311C46.2965 15.8311 46.208 15.8871 46.208 16.1117C46.208 16.318 46.2454 16.4488 46.2454 16.6911C46.2454 16.9351 46.1887 17.1037 45.9664 17.1037C45.4645 17.1037 45.0182 15.9242 44.5906 15.9242C44.4976 15.9242 44.4052 15.9808 44.4052 16.0745C44.4052 16.2991 44.7761 16.71 44.7761 16.9162C44.7761 17.366 43.5682 17.122 43.5682 17.4968C43.5682 17.6654 43.7349 17.7208 43.9583 17.7208C44.3491 17.7208 44.9627 17.5534 45.2785 17.5534C45.4645 17.5534 45.743 17.5905 45.743 17.8328C45.743 18.0951 45.0738 18.4317 45.0738 18.6751C45.0738 18.7877 45.185 18.8431 45.278 18.8431C45.7799 18.8431 46.6679 17.9642 47.2997 17.9642C47.4108 17.9642 47.6893 18.0202 47.6893 18.1888C47.6893 18.4317 47.0581 18.8614 47.0581 19.2174C47.0581 19.3111 47.1148 19.4231 47.226 19.4231C47.5583 19.4231 48.0046 18.5442 48.6369 18.5442C48.8785 18.5442 49.2318 18.638 49.4184 18.638C49.5675 18.638 49.6231 18.5442 49.6231 18.4877ZM50.1063 27.5637C50.404 26.6288 50.776 25.9728 51.3845 24.9625C50.776 24.6454 49.1581 23.9705 49.1581 22.8665C49.1581 21.5751 50.7556 20.5648 51.0868 20.5648C51.2359 20.5648 51.2728 20.6962 51.2728 20.9397C51.2728 21.6128 50.9569 22.698 50.9569 23.2785C50.9569 23.802 51.2915 24.3082 51.5887 24.3082C51.9046 24.3082 52.7779 23.1854 52.7779 22.0808C52.7779 20.0968 51.0494 19.4985 50.5146 19.4985C50.0127 19.4985 49.1019 20.3214 46.9651 20.3214C42.9733 20.3214 42.0625 16.3368 42.0625 14.5957C42.0625 14.5208 42.0801 14.502 42.0988 14.502C42.1918 14.502 42.5831 14.9894 43.846 14.9894C44.4965 14.9894 45.0914 14.8202 46.0396 14.8202C48.2643 14.8202 49.2499 16.3745 50.6257 18.3568C51.4577 18.8802 53.4471 19.7231 53.4471 22.0997C53.4471 24.1957 51.2354 25.3557 50.7 27.6014C51.5507 27.5082 52.0531 25.9728 52.9265 25.9728C53.3728 25.9728 53.5769 26.3288 53.5769 26.8911C53.5769 27.7134 53.1119 28.9494 52.2199 29.7162C52.238 29.6414 52.238 29.5471 52.238 29.4351C52.238 28.9117 52.0344 28.1637 51.4384 28.1637C50.5134 28.1637 50.2163 29.174 49.6963 30.0151C49.1569 28.1071 48.4322 26.3848 47.1324 25.3368C45.8173 24.2705 43.5489 24.85 43.5489 22.9042C43.5489 22.3797 43.884 21.6317 43.884 21.0328C43.884 20.8271 43.8466 20.6397 43.7343 20.49C45.519 21.1642 44.8867 22.3608 45.9846 23.5962C46.6679 24.3831 48.5632 25.1311 49.6594 28.3682C49.6775 28.2751 49.6963 28.0322 49.6963 27.8637C49.6963 25.094 46.0577 22.3797 45.7419 21.2568C47.8554 21.5002 48.2269 22.0248 49.2307 24.8317C49.4365 25.4122 50.1063 26.8534 50.1063 27.5637Z" fill="white"/>
<path d="M39.9477 7.76514C38.6462 7.76514 37.7916 7.11085 37.7916 6.77314C37.7916 6.60457 37.9028 6.49314 38.0525 6.49314C38.4608 6.49314 39.3528 7.12857 39.6494 7.12857C39.7249 7.12857 39.7799 7.092 39.7799 6.97943C39.7799 6.64228 39.464 6.08114 39.464 5.80114C39.464 5.72571 39.5201 5.67028 39.6313 5.67028C40.1326 5.67028 40.8761 5.876 41.2674 5.876C41.3972 5.876 41.4341 5.80114 41.4341 5.72571C41.4341 5.31428 40.2256 4.50971 40.2256 4.26628C40.2256 4.04171 41.7273 3.704 41.7273 3.34971C41.7273 2.97486 39.6857 3.23714 39.6857 2.88114C39.6857 2.61943 40.0765 2.17028 40.0765 1.96457C40.0765 1.87086 40.0016 1.83371 39.8723 1.83371C39.705 1.83371 38.813 2.18914 38.4409 2.18914C38.2555 2.18914 38.0321 2.152 38.0321 1.88914C38.0321 1.45886 38.7568 0.991428 39.891 0.991428C41.7267 0.991428 42.8241 2.264 42.8241 4.39714C42.8252 7.092 40.9515 7.76514 39.9477 7.76514ZM36.3274 4.21028C36.3274 4.004 35.6015 3.61143 35.6015 3.38686C35.6015 3.34971 35.6378 3.33086 35.6939 3.33086C35.8992 3.33086 36.2525 3.40571 36.5321 3.40571C36.7737 3.40571 36.8105 2.35771 36.9931 2.35771C37.123 2.35771 37.3453 3.34971 37.5512 3.34971C37.7922 3.34971 38.2379 3.06857 38.4239 3.06857C38.4608 3.06857 38.4982 3.08686 38.4982 3.12514C38.4982 3.256 38.0338 3.76057 38.0338 3.91028C38.0338 4.07886 39.075 4.28514 39.075 4.43486C39.075 4.62228 38.015 4.60343 38.015 4.772C38.015 4.90171 38.4058 5.42628 38.4058 5.59486C38.4058 5.63257 38.3865 5.65143 38.3496 5.65143C38.2005 5.65143 37.6249 5.38857 37.4576 5.38857C37.2529 5.38857 36.9222 6.156 36.7549 6.156C36.6994 6.156 36.6625 6.08114 36.6625 5.98743L36.6251 5.23943C36.6251 5.16457 36.5888 5.08914 36.4952 5.08914C36.2718 5.08914 35.8442 5.07028 35.7132 5.07028C35.6202 5.07028 35.5833 5.052 35.5833 5.01428C35.5828 4.86457 36.3274 4.34114 36.3274 4.21028ZM35.7869 7.27771C36.0852 7.27771 36.1408 8.00857 36.1975 8.43828C36.2344 8.66343 36.2718 8.68171 36.3648 8.68171C36.5882 8.68171 36.9404 7.82114 37.1791 7.82114C37.5313 7.82114 38.4801 8.81314 40.0595 8.81314C42.3052 8.81314 44.4239 7.22171 44.4239 4.416C44.4239 1.70229 42.5269 0.111429 39.9103 0.111429C38.6661 0.111429 37.7542 0.729143 37.271 0.729143C36.9778 0.748 36.5321 0 36.3081 0C36.2156 0 36.1226 0.185714 36.1226 0.504571C36.1226 0.710857 36.1226 1.36514 35.8992 1.36514C35.4523 1.36514 33.7261 0.0748571 33.7261 0.541714C33.7261 0.972571 34.8761 2.28286 34.8761 2.61943C34.8761 2.956 33.7442 3.27486 33.7442 3.49886C33.7442 3.91028 34.951 3.98514 34.951 4.50971C34.951 5.03314 33.6875 5.44514 33.6875 5.83828C33.6875 6.156 34.951 5.932 34.951 6.32457C34.951 6.71714 34.0227 8.02743 34.0227 8.40057C34.0227 8.49485 34.0408 8.49485 34.1145 8.49485C34.4678 8.49485 35.5266 7.27771 35.7869 7.27771Z" fill="white"/>
<path d="M27.3737 40.1379C27.3737 40.3065 27.3176 40.4939 27.169 40.6802C26.966 40.3065 26.3892 40.119 26.1289 40.1196C24.2161 40.1196 24.9403 42.9082 22.8976 42.9082C22.0435 42.9082 21.9687 42.7956 21.6539 42.7956C21.5235 42.7956 21.4492 42.8522 21.4492 42.9642C21.4492 43.4516 22.1365 44.6482 24.0494 44.6482C25.9622 44.6482 27.8013 43.4699 27.8013 42.0088C27.8013 41.7653 27.7458 41.5053 27.634 41.2431C27.7083 41.1305 27.8949 41.0556 28.0616 41.0556C28.3582 41.0556 28.5255 41.3939 28.804 41.3939C29.1017 41.3939 29.3246 41.1682 29.3246 40.8693C29.3246 40.6248 29.1947 40.4573 28.9724 40.3436C29.121 40.2322 29.2321 40.0448 29.2321 39.8391C29.2321 39.5196 29.0087 39.2219 28.6367 39.2219C28.4694 39.2219 28.3588 39.279 28.2289 39.407C28.1926 39.0722 28.006 38.7539 27.6527 38.7539C27.3743 38.7539 27.169 38.959 27.169 39.2785C27.169 39.5756 27.3737 39.8202 27.3737 40.1379Z" fill="white"/>
<path d="M17.1958 36.6595C18.6816 37.0315 19.4245 37.8367 19.5725 38.7915C19.7211 39.7081 19.9065 40.4578 20.2593 40.831C20.7237 41.3561 21.6339 41.8213 22.433 41.8213C23.1016 41.8213 23.6392 41.599 23.6392 40.9807C23.6392 40.3064 22.7296 38.791 21.3923 38.791C21.2625 38.791 21.0952 38.8104 20.9092 38.8104C20.7419 38.8104 20.5003 38.7733 20.3523 38.6418C20.0557 38.379 19.9621 36.9755 19.4052 36.1338C18.7927 35.1978 18.1241 34.9355 17.2145 34.9355C16.5652 34.9355 15.8398 35.2904 15.8398 35.815C15.8398 36.135 16.0071 36.359 17.1958 36.6595ZM22.3774 40.8504C21.8194 40.8504 20.984 40.2504 20.984 39.9133C20.984 39.6321 21.2443 39.4824 21.4473 39.4824C21.9124 39.4824 22.7471 40.0641 22.7471 40.5504C22.7477 40.6813 22.6547 40.8504 22.3774 40.8504Z" fill="white"/>
<path d="M20.6674 26.2727C20.6674 25.075 23.491 24.439 23.491 22.9602C23.491 22.7168 23.398 22.287 23.2307 21.9688C24.2141 22.511 24.9388 23.4287 24.9388 24.1767C24.9388 25.4682 23.6022 26.067 23.6022 26.8722C23.6022 27.8076 25.0318 27.9573 25.0318 29.1173C25.0318 30.071 23.6759 31.1756 23.6759 32.4105C23.6759 33.3647 24.3451 34.1499 25.3653 34.2813C25.0313 34.3562 24.7347 34.4122 24.4188 34.4122C22.5423 34.4122 20.6113 32.8596 20.6113 31.0065C20.6113 30.0899 21.0015 29.2865 21.5946 28.7059C22.1158 29.155 22.6353 29.4539 22.9699 29.4539C23.2665 29.4539 23.3975 29.3047 23.3975 29.0802C23.398 28.387 20.6674 27.7516 20.6674 26.2727ZM26.5919 35.723C25.9551 36.0167 25.701 35.9665 25.701 36.6219C25.701 36.8647 25.6449 37.1813 25.6449 37.3505C25.6449 37.575 25.6817 37.7065 25.9415 37.7065C26.6107 37.7065 27.6694 36.5653 27.6694 35.5916C27.6694 35.3287 27.5203 35.2185 27.353 35.2185C27.2044 35.2185 27.0383 35.5167 26.5919 35.723ZM26.5177 34.375C26.5177 33.5333 24.7903 33.5145 24.7903 32.2419C24.7903 31.923 24.9939 31.3813 25.4033 30.8002C25.5712 31.7733 25.9596 32.279 26.7967 32.5979C28.4486 33.2145 28.6721 34.1499 28.6721 35.143C28.6721 36.8276 27.5021 38.923 24.4937 38.923C22.079 38.923 20.3516 36.7516 20.3516 34.9179C20.3516 34.4122 20.4814 33.8516 20.7973 33.8516C21.0763 33.8516 21.1688 34.0756 21.3916 34.2996C22.2281 35.143 23.1377 35.3665 24.4562 35.3665C25.6449 35.367 26.5177 34.8807 26.5177 34.375Z" fill="white"/>
<path d="M13.3662 34.7798C13.4115 35.1706 13.1342 35.5232 12.7469 35.5689C12.359 35.6146 12.0074 35.3346 11.9632 34.9443C11.9178 34.5529 12.1951 34.1992 12.583 34.1535C12.9709 34.1078 13.3214 34.3883 13.3662 34.7798ZM9.8955 35.5158C9.97433 36.1546 10.5658 36.6392 11.2333 36.5643C11.4743 36.5375 11.6977 36.4712 11.8469 36.3775C11.9955 36.9758 12.494 37.3609 13.1677 37.2718C13.8516 37.1821 14.3166 36.6392 14.2429 35.9466C14.2236 35.7603 14.1868 35.6466 14.1317 35.5158C14.1317 35.5158 14.2219 35.5061 14.29 35.4935C14.9608 35.3655 15.4128 34.8232 15.3567 34.1683C15.283 33.4946 14.683 32.9946 14.0586 33.0723C13.8164 33.1021 13.593 33.1952 13.4439 33.3261C13.276 32.7655 12.7526 32.2781 12.038 32.3969C11.3921 32.5049 10.9651 33.0569 11.0297 33.7569C11.0405 33.8706 11.0666 34.0003 11.1227 34.1306C11.1227 34.1306 11.0133 34.1472 10.9378 34.1581C10.3957 34.2392 9.8076 34.7889 9.8955 35.5158Z" fill="white"/>
</g>
<defs>
<clipPath id="clip0_187_532">
<rect width="61" height="68" fill="white"/>
</clipPath>
</defs>
</svg>
