<svg width="51" height="19" viewBox="0 0 51 19" fill="none" xmlns="http://www.w3.org/2000/svg">
<g clip-path="url(#clip0_27_157)">
<path d="M45.2526 4.36281C45.7026 2.45608 44.5217 0.545554 42.615 0.0955259C40.7082 -0.354503 38.7977 0.826385 38.3477 2.73311C37.8977 4.63984 39.0785 6.55037 40.9853 7.0004C42.892 7.45042 44.8025 6.26954 45.2526 4.36281Z" fill="black"/>
<path d="M41.8001 18.1903C43.7592 18.1903 45.3474 16.6021 45.3474 14.643C45.3474 12.6839 43.7592 11.0957 41.8001 11.0957C39.841 11.0957 38.2528 12.6839 38.2528 14.643C38.2528 16.6021 39.841 18.1903 41.8001 18.1903Z" fill="black"/>
<path d="M49.8567 11.603C51.242 10.2177 51.242 7.97171 49.8567 6.58641C48.4714 5.20111 46.2254 5.20111 44.8401 6.58641C43.4548 7.97172 43.4548 10.2177 44.8401 11.603C46.2254 12.9883 48.4714 12.9883 49.8567 11.603Z" fill="black"/>
<path d="M36.2529 12.6424C38.212 12.6424 39.8002 11.0543 39.8002 9.09514C39.8002 7.13603 38.212 5.54785 36.2529 5.54785C34.2937 5.54785 32.7056 7.13603 32.7056 9.09514C32.7056 11.0543 34.2937 12.6424 36.2529 12.6424Z" fill="black"/>
</g>
<g clip-path="url(#clip1_27_157)">
<mask id="mask0_27_157" style="mask-type:luminance" maskUnits="userSpaceOnUse" x="0" y="0" width="19" height="19">
<path d="M18.1924 0.34668H0V18.5391H18.1924V0.34668Z" fill="white"/>
</mask>
<g mask="url(#mask0_27_157)">
<path fill-rule="evenodd" clip-rule="evenodd" d="M9.09573 6.89618C7.68921 6.89618 6.54855 8.03684 6.54855 9.44337C6.54855 10.8499 7.68921 11.9906 9.09573 11.9906C10.5023 11.9906 11.6429 10.8499 11.6429 9.44337C11.6429 8.03684 10.5023 6.89618 9.09573 6.89618ZM0 9.44241C0 4.41951 4.07283 0.34668 9.09573 0.34668C14.1186 0.34668 18.1915 4.41951 18.1915 9.44241C18.1915 14.4653 14.1186 18.5381 9.09573 18.5381C4.07283 18.5381 0 14.4663 0 9.44241Z" fill="black"/>
</g>
</g>
<defs>
<clipPath id="clip0_27_157">
<rect width="18.19" height="18.19" fill="white" transform="translate(32.7056)"/>
</clipPath>
<clipPath id="clip1_27_157">
<rect width="18.1924" height="18.1924" fill="white" transform="translate(0 0.34668)"/>
</clipPath>
</defs>
</svg>
