<svg width="68" height="24" viewBox="0 0 68 24" fill="none" xmlns="http://www.w3.org/2000/svg">
<g clip-path="url(#clip0_27_159)">
<mask id="mask0_27_159" style="mask-type:luminance" maskUnits="userSpaceOnUse" x="44" y="0" width="24" height="24">
<path d="M68 0H44V24H68V0Z" fill="white"/>
</mask>
<g mask="url(#mask0_27_159)">
<path d="M56.0007 24C59.1825 24 62.2361 22.7353 64.4864 20.485C66.7367 18.2348 68.0014 15.1824 68.0014 11.9994C68.0014 8.8163 66.7367 5.76397 64.4864 3.5137C62.2349 1.26468 59.1825 0 56.0007 0V24Z" fill="black"/>
<path d="M44 24C47.1831 24 50.2354 22.7353 52.4857 20.485C54.7359 18.2348 56.0006 15.1824 56.0006 11.9994C56.0006 8.8163 54.7359 5.76397 52.4857 3.5137C50.2354 1.26342 47.1831 0 44 0V24Z" fill="black"/>
</g>
</g>
<g clip-path="url(#clip1_27_159)">
<path d="M16.5546 5.7562C17.1484 3.24045 15.5903 0.719692 13.0745 0.125922C10.5588 -0.467849 8.03803 1.09022 7.44426 3.60597C6.85049 6.12172 8.40856 8.64248 10.9243 9.23625C13.4401 9.83002 15.9608 8.27195 16.5546 5.7562Z" fill="black"/>
<path d="M11.9994 24.0003C14.5843 24.0003 16.6797 21.9048 16.6797 19.32C16.6797 16.7351 14.5843 14.6396 11.9994 14.6396C9.41454 14.6396 7.31909 16.7351 7.31909 19.32C7.31909 21.9048 9.41454 24.0003 11.9994 24.0003Z" fill="black"/>
<path d="M22.6294 15.3095C24.4572 13.4817 24.4572 10.5183 22.6294 8.69051C20.8016 6.86273 17.8382 6.86274 16.0104 8.69051C14.1826 10.5183 14.1826 13.4817 16.0104 15.3095C17.8382 17.1373 20.8016 17.1373 22.6294 15.3095Z" fill="black"/>
<path d="M4.68032 16.68C7.26519 16.68 9.36064 14.5845 9.36064 11.9997C9.36064 9.41479 7.26519 7.31934 4.68032 7.31934C2.09545 7.31934 0 9.41479 0 11.9997C0 14.5845 2.09545 16.68 4.68032 16.68Z" fill="black"/>
</g>
<defs>
<clipPath id="clip0_27_159">
<rect width="24" height="24" fill="white" transform="translate(44)"/>
</clipPath>
<clipPath id="clip1_27_159">
<rect width="24" height="24" fill="white"/>
</clipPath>
</defs>
</svg>
