<svg width="61" height="22" viewBox="0 0 61 22" fill="none" xmlns="http://www.w3.org/2000/svg">
<g clip-path="url(#clip0_27_158)">
<path d="M5.35305 0C2.3967 0 0 2.3967 0 5.35305C0 8.3094 2.3967 10.7061 5.35305 10.7061C2.3967 10.705 0 13.1028 0 16.058C0 19.0133 2.3967 21.4111 5.35305 21.4111H16.058C19.0144 21.4111 21.4111 19.0144 21.4111 16.058C21.4111 13.1017 19.0144 10.705 16.058 10.705C19.0144 10.705 21.4111 8.30828 21.4111 5.35193C21.4111 2.39558 19.0144 0 16.058 0H5.35305Z" fill="black"/>
</g>
<g clip-path="url(#clip1_27_158)">
<mask id="mask0_27_158" style="mask-type:luminance" maskUnits="userSpaceOnUse" x="39" y="0" width="22" height="22">
<path d="M60.6647 0H39.2537V21.4111H60.6647V0Z" fill="white"/>
</mask>
<g mask="url(#mask0_27_158)">
<path fill-rule="evenodd" clip-rule="evenodd" d="M49.9586 7.70826C48.3033 7.70826 46.9608 9.05072 46.9608 10.7061C46.9608 12.3615 48.3033 13.7039 49.9586 13.7039C51.614 13.7039 52.9565 12.3615 52.9565 10.7061C52.9565 9.05072 51.614 7.70826 49.9586 7.70826ZM39.2537 10.705C39.2537 4.79341 44.0471 0 49.9586 0C55.8702 0 60.6636 4.79341 60.6636 10.705C60.6636 16.6165 55.8702 21.41 49.9586 21.41C44.0471 21.41 39.2537 16.6177 39.2537 10.705Z" fill="black"/>
</g>
</g>
<defs>
<clipPath id="clip0_27_158">
<rect width="21.4111" height="21.4111" fill="white"/>
</clipPath>
<clipPath id="clip1_27_158">
<rect width="21.4111" height="21.4111" fill="white" transform="translate(39.2537)"/>
</clipPath>
</defs>
</svg>
