<svg width="85" height="85" viewBox="0 0 85 85" fill="none" xmlns="http://www.w3.org/2000/svg">
<g clip-path="url(#clip0_37_94)">
<path d="M58.6308 20.3859C60.7337 11.4759 55.2155 2.54822 46.3056 0.445278C37.3957 -1.65766 28.468 3.86051 26.365 12.7704C24.2621 21.6804 29.7802 30.6081 38.6902 32.711C47.6001 34.814 56.5278 29.2958 58.6308 20.3859Z" fill="black"/>
<path d="M42.4978 85.0001C51.6525 85.0001 59.0739 77.5787 59.0739 68.4239C59.0739 59.2692 51.6525 51.8478 42.4978 51.8478C33.343 51.8478 25.9216 59.2692 25.9216 68.4239C25.9216 77.5787 33.343 85.0001 42.4978 85.0001Z" fill="black"/>
<path d="M80.1456 54.2212C86.619 47.7478 86.619 37.2524 80.1456 30.779C73.6723 24.3056 63.1768 24.3056 56.7034 30.779C50.2301 37.2524 50.2301 47.7478 56.7034 54.2212C63.1768 60.6946 73.6723 60.6946 80.1456 54.2212Z" fill="black"/>
<path d="M16.5761 59.0739C25.7309 59.0739 33.1523 51.6525 33.1523 42.4978C33.1523 33.343 25.7309 25.9216 16.5761 25.9216C7.42139 25.9216 0 33.343 0 42.4978C0 51.6525 7.42139 59.0739 16.5761 59.0739Z" fill="#E2F271"/>
</g>
<defs>
<clipPath id="clip0_37_94">
<rect width="85" height="85" fill="white"/>
</clipPath>
</defs>
</svg>
