<svg width="24" height="24" viewBox="0 0 24 24" fill="none" xmlns="http://www.w3.org/2000/svg">
<g clip-path="url(#clip0_604_421)">
<path d="M16.5546 5.7562C17.1483 3.24045 15.5903 0.71969 13.0745 0.12592C10.5588 -0.467851 8.03801 1.09022 7.44424 3.60597C6.85047 6.12172 8.40854 8.64248 10.9243 9.23625C13.44 9.83002 15.9608 8.27195 16.5546 5.7562Z" fill="#E2F271"/>
<path d="M11.9994 24.0003C14.5843 24.0003 16.6797 21.9048 16.6797 19.32C16.6797 16.7351 14.5843 14.6396 11.9994 14.6396C9.41454 14.6396 7.31909 16.7351 7.31909 19.32C7.31909 21.9048 9.41454 24.0003 11.9994 24.0003Z" fill="#E2F271"/>
<path d="M22.6294 15.3095C24.4571 13.4817 24.4571 10.5183 22.6294 8.69051C20.8016 6.86273 17.8382 6.86273 16.0104 8.69051C14.1826 10.5183 14.1826 13.4817 16.0104 15.3095C17.8382 17.1373 20.8016 17.1373 22.6294 15.3095Z" fill="#E2F271"/>
<path d="M4.68032 16.68C7.26519 16.68 9.36064 14.5845 9.36064 11.9997C9.36064 9.41479 7.26519 7.31934 4.68032 7.31934C2.09545 7.31934 0 9.41479 0 11.9997C0 14.5845 2.09545 16.68 4.68032 16.68Z" fill="#E2F271"/>
</g>
<defs>
<clipPath id="clip0_604_421">
<rect width="24" height="24" fill="white"/>
</clipPath>
</defs>
</svg>
