<svg width="141" height="28" viewBox="0 0 141 28" fill="none" xmlns="http://www.w3.org/2000/svg">
<circle cx="3" cy="13" r="3" fill="black"/>
<circle cx="19" cy="3" r="3" fill="black"/>
<circle cx="9" cy="25" r="3" fill="black"/>
<circle cx="25" cy="15" r="3" fill="black"/>
<path d="M39.6724 20V8.112H42.0084V15.16L45.0484 11.728H47.5604L44.5524 15.024L47.6644 20H45.3364L43.1044 16.432L42.0084 17.6V20H39.6724ZM48.714 20V11.728H50.962V13.688C51.0953 13.2667 51.282 12.8987 51.522 12.584C51.7673 12.264 52.0633 12.016 52.41 11.84C52.7567 11.6587 53.1487 11.568 53.586 11.568C53.6607 11.568 53.73 11.5733 53.794 11.584C53.8633 11.5893 53.914 11.6 53.946 11.616V13.84C53.898 13.8187 53.8393 13.8053 53.77 13.8C53.706 13.7947 53.6473 13.7893 53.594 13.784C53.1353 13.7467 52.7433 13.76 52.418 13.824C52.0927 13.888 51.8287 13.9973 51.626 14.152C51.4233 14.3067 51.2767 14.496 51.186 14.72C51.0953 14.944 51.05 15.1947 51.05 15.472V20H48.714ZM58.8681 20.16C58.0468 20.16 57.3241 19.9893 56.7001 19.648C56.0815 19.3013 55.5988 18.8133 55.2521 18.184C54.9055 17.5547 54.7321 16.8133 54.7321 15.96C54.7321 15.1333 54.8895 14.3893 55.2041 13.728C55.5241 13.0613 55.9828 12.536 56.5801 12.152C57.1775 11.7627 57.9001 11.568 58.7481 11.568C59.5908 11.568 60.2975 11.7467 60.8681 12.104C61.4388 12.456 61.8708 12.9493 62.1641 13.584C62.4575 14.2133 62.6041 14.9413 62.6041 15.768V16.4H57.0441C57.0441 16.8213 57.1135 17.1893 57.2521 17.504C57.3908 17.8133 57.5908 18.0533 57.8521 18.224C58.1188 18.3893 58.4388 18.472 58.8121 18.472C59.2121 18.472 59.5615 18.3867 59.8601 18.216C60.1588 18.0453 60.3695 17.7653 60.4921 17.376H62.5961C62.5001 17.9627 62.2655 18.464 61.8921 18.88C61.5188 19.296 61.0655 19.6133 60.5321 19.832C59.9988 20.0507 59.4441 20.16 58.8681 20.16ZM57.0441 15.008H60.4201C60.4201 14.6773 60.3561 14.3733 60.2281 14.096C60.1055 13.8187 59.9188 13.6 59.6681 13.44C59.4228 13.28 59.1135 13.2 58.7401 13.2C58.3828 13.2 58.0761 13.288 57.8201 13.464C57.5695 13.6347 57.3748 13.8587 57.2361 14.136C57.1028 14.4133 57.0388 14.704 57.0441 15.008ZM64.0629 22.576V11.728H66.4069L66.4149 12.92C66.5375 12.7227 66.6869 12.544 66.8629 12.384C67.0442 12.2187 67.2442 12.0747 67.4629 11.952C67.6815 11.8293 67.9189 11.736 68.1749 11.672C68.4309 11.6027 68.7002 11.568 68.9829 11.568C69.5962 11.568 70.1429 11.72 70.6229 12.024C71.1029 12.3227 71.4789 12.7867 71.7509 13.416C72.0282 14.04 72.1669 14.8347 72.1669 15.8C72.1669 16.8027 72.0175 17.6267 71.7189 18.272C71.4255 18.912 71.0202 19.3867 70.5029 19.696C69.9855 20.0053 69.4015 20.16 68.7509 20.16C68.4842 20.16 68.2335 20.1227 67.9989 20.048C67.7642 19.9787 67.5455 19.88 67.3429 19.752C67.1455 19.624 66.9669 19.4773 66.8069 19.312C66.6522 19.1413 66.5162 18.9573 66.3989 18.76V22.576H64.0629ZM68.1909 18.448C68.6975 18.448 69.1215 18.2373 69.4629 17.816C69.8095 17.3947 69.9829 16.728 69.9829 15.816C69.9829 15.016 69.8175 14.392 69.4869 13.944C69.1615 13.4907 68.7295 13.264 68.1909 13.264C67.5882 13.264 67.1375 13.5093 66.8389 14C66.5455 14.4853 66.3989 15.0907 66.3989 15.816C66.3989 16.28 66.4629 16.712 66.5909 17.112C66.7242 17.512 66.9215 17.8347 67.1829 18.08C67.4495 18.3253 67.7855 18.448 68.1909 18.448ZM73.5576 22.576V11.728H75.9016L75.9096 12.92C76.0323 12.7227 76.1816 12.544 76.3576 12.384C76.539 12.2187 76.739 12.0747 76.9576 11.952C77.1763 11.8293 77.4136 11.736 77.6696 11.672C77.9256 11.6027 78.195 11.568 78.4776 11.568C79.091 11.568 79.6376 11.72 80.1176 12.024C80.5976 12.3227 80.9736 12.7867 81.2456 13.416C81.523 14.04 81.6616 14.8347 81.6616 15.8C81.6616 16.8027 81.5123 17.6267 81.2136 18.272C80.9203 18.912 80.515 19.3867 79.9976 19.696C79.4803 20.0053 78.8963 20.16 78.2456 20.16C77.979 20.16 77.7283 20.1227 77.4936 20.048C77.259 19.9787 77.0403 19.88 76.8376 19.752C76.6403 19.624 76.4616 19.4773 76.3016 19.312C76.147 19.1413 76.011 18.9573 75.8936 18.76V22.576H73.5576ZM77.6856 18.448C78.1923 18.448 78.6163 18.2373 78.9576 17.816C79.3043 17.3947 79.4776 16.728 79.4776 15.816C79.4776 15.016 79.3123 14.392 78.9816 13.944C78.6563 13.4907 78.2243 13.264 77.6856 13.264C77.083 13.264 76.6323 13.5093 76.3336 14C76.0403 14.4853 75.8936 15.0907 75.8936 15.816C75.8936 16.28 75.9576 16.712 76.0856 17.112C76.219 17.512 76.4163 17.8347 76.6776 18.08C76.9443 18.3253 77.2803 18.448 77.6856 18.448ZM86.6604 20.16C85.8497 20.16 85.143 19.9867 84.5404 19.64C83.943 19.2933 83.479 18.8027 83.1484 18.168C82.823 17.5333 82.6604 16.7813 82.6604 15.912C82.6604 15.0427 82.823 14.2827 83.1484 13.632C83.479 12.9813 83.943 12.4747 84.5404 12.112C85.143 11.7493 85.8524 11.568 86.6684 11.568C87.4844 11.568 88.191 11.7467 88.7884 12.104C89.3857 12.456 89.847 12.9573 90.1724 13.608C90.4977 14.2587 90.6604 15.0267 90.6604 15.912C90.6604 16.744 90.5004 17.48 90.1804 18.12C89.8657 18.7547 89.4097 19.2533 88.8124 19.616C88.2204 19.9787 87.503 20.16 86.6604 20.16ZM86.6684 18.424C87.079 18.424 87.4097 18.304 87.6604 18.064C87.911 17.824 88.0924 17.5093 88.2044 17.12C88.3164 16.7253 88.3724 16.296 88.3724 15.832C88.3724 15.3947 88.3217 14.9813 88.2204 14.592C88.119 14.2027 87.943 13.888 87.6924 13.648C87.4417 13.408 87.1004 13.288 86.6684 13.288C86.2577 13.288 85.9244 13.4027 85.6684 13.632C85.4177 13.856 85.2337 14.1627 85.1164 14.552C84.999 14.936 84.9404 15.3627 84.9404 15.832C84.9404 16.264 84.9937 16.68 85.1004 17.08C85.207 17.4747 85.3857 17.7973 85.6364 18.048C85.887 18.2987 86.231 18.424 86.6684 18.424ZM98.698 20.16C98.122 20.16 97.5673 20.0667 97.034 19.88C96.506 19.688 96.0553 19.3893 95.682 18.984C95.314 18.5733 95.082 18.0427 94.986 17.392H97.002C97.0767 17.6853 97.2047 17.9173 97.386 18.088C97.5727 18.2587 97.7833 18.3813 98.018 18.456C98.2527 18.5253 98.4767 18.56 98.69 18.56C99.138 18.56 99.498 18.4907 99.77 18.352C100.047 18.208 100.186 17.9893 100.186 17.696C100.186 17.472 100.103 17.2933 99.938 17.16C99.778 17.0267 99.5113 16.9253 99.138 16.856L97.682 16.552C96.9513 16.3973 96.362 16.136 95.914 15.768C95.4713 15.3947 95.2473 14.8667 95.242 14.184C95.2367 13.688 95.3647 13.2427 95.626 12.848C95.8927 12.4533 96.2847 12.1413 96.802 11.912C97.3247 11.6827 97.962 11.568 98.714 11.568C99.7327 11.568 100.546 11.792 101.154 12.24C101.767 12.688 102.079 13.32 102.09 14.136H100.138C100.079 13.816 99.9193 13.5707 99.658 13.4C99.402 13.224 99.0767 13.136 98.682 13.136C98.282 13.136 97.9513 13.208 97.69 13.352C97.4287 13.496 97.298 13.7147 97.298 14.008C97.298 14.2267 97.4047 14.4 97.618 14.528C97.8313 14.6507 98.162 14.7573 98.61 14.848L99.954 15.152C100.418 15.264 100.794 15.4187 101.082 15.616C101.375 15.808 101.602 16.0187 101.762 16.248C101.922 16.4773 102.031 16.7093 102.09 16.944C102.154 17.1733 102.186 17.3813 102.186 17.568C102.186 18.1173 102.039 18.5867 101.746 18.976C101.453 19.36 101.045 19.6533 100.522 19.856C99.9993 20.0587 99.3913 20.16 98.698 20.16ZM107.12 20.088C106.39 20.088 105.824 19.9947 105.424 19.808C105.03 19.6213 104.755 19.36 104.6 19.024C104.451 18.688 104.376 18.2987 104.376 17.856V13.352H103.032V11.728H104.448L105.04 9.232H106.704V11.72H108.544V13.352H106.704L106.72 17.76C106.72 17.9627 106.744 18.1147 106.792 18.216C106.846 18.312 106.926 18.376 107.032 18.408C107.144 18.4347 107.286 18.448 107.456 18.448H108.568V19.888C108.456 19.936 108.288 19.9813 108.064 20.024C107.84 20.0667 107.526 20.088 107.12 20.088ZM112.954 20.16C112.57 20.16 112.192 20.1013 111.818 19.984C111.45 19.8667 111.114 19.6933 110.81 19.464C110.506 19.2347 110.261 18.952 110.074 18.616C109.893 18.28 109.802 17.8907 109.802 17.448V11.728H112.138V17.152C112.138 17.536 112.264 17.8507 112.514 18.096C112.765 18.3413 113.133 18.464 113.618 18.464C114.077 18.464 114.44 18.3467 114.706 18.112C114.978 17.872 115.114 17.5387 115.114 17.112V11.728H117.426V20H115.666L115.394 18.36C115.298 18.8453 115.117 19.2187 114.85 19.48C114.589 19.736 114.288 19.912 113.946 20.008C113.61 20.1093 113.28 20.16 112.954 20.16ZM122.326 20.16C121.217 20.16 120.353 19.7787 119.734 19.016C119.115 18.248 118.806 17.1813 118.806 15.816C118.806 14.952 118.931 14.2027 119.182 13.568C119.433 12.9333 119.803 12.4427 120.294 12.096C120.785 11.744 121.385 11.568 122.094 11.568C122.393 11.568 122.67 11.6027 122.926 11.672C123.187 11.736 123.425 11.8267 123.638 11.944C123.851 12.0613 124.038 12.1973 124.198 12.352C124.358 12.5067 124.489 12.672 124.59 12.848V8.112H126.934V20H125.238L124.974 18.304C124.894 18.5333 124.787 18.7573 124.654 18.976C124.526 19.1947 124.358 19.3947 124.15 19.576C123.942 19.752 123.686 19.8933 123.382 20C123.083 20.1067 122.731 20.16 122.326 20.16ZM122.838 18.48C123.425 18.48 123.862 18.2747 124.15 17.864C124.443 17.4533 124.59 16.76 124.59 15.784C124.585 15.2187 124.518 14.7493 124.39 14.376C124.262 14.0027 124.07 13.7253 123.814 13.544C123.563 13.3573 123.243 13.264 122.854 13.264C122.347 13.264 121.926 13.4587 121.59 13.848C121.254 14.232 121.086 14.8773 121.086 15.784C121.086 16.7067 121.243 17.3867 121.558 17.824C121.873 18.2613 122.299 18.48 122.838 18.48ZM128.779 20V11.728H131.011V20H128.779ZM128.755 10.544V8.44H131.027V10.544H128.755ZM136.405 20.16C135.594 20.16 134.888 19.9867 134.285 19.64C133.688 19.2933 133.224 18.8027 132.893 18.168C132.568 17.5333 132.405 16.7813 132.405 15.912C132.405 15.0427 132.568 14.2827 132.893 13.632C133.224 12.9813 133.688 12.4747 134.285 12.112C134.888 11.7493 135.597 11.568 136.413 11.568C137.229 11.568 137.936 11.7467 138.533 12.104C139.13 12.456 139.592 12.9573 139.917 13.608C140.242 14.2587 140.405 15.0267 140.405 15.912C140.405 16.744 140.245 17.48 139.925 18.12C139.61 18.7547 139.154 19.2533 138.557 19.616C137.965 19.9787 137.248 20.16 136.405 20.16ZM136.413 18.424C136.824 18.424 137.154 18.304 137.405 18.064C137.656 17.824 137.837 17.5093 137.949 17.12C138.061 16.7253 138.117 16.296 138.117 15.832C138.117 15.3947 138.066 14.9813 137.965 14.592C137.864 14.2027 137.688 13.888 137.437 13.648C137.186 13.408 136.845 13.288 136.413 13.288C136.002 13.288 135.669 13.4027 135.413 13.632C135.162 13.856 134.978 14.1627 134.861 14.552C134.744 14.936 134.685 15.3627 134.685 15.832C134.685 16.264 134.738 16.68 134.845 17.08C134.952 17.4747 135.13 17.7973 135.381 18.048C135.632 18.2987 135.976 18.424 136.413 18.424Z" fill="black"/>
</svg>
